<?xml version="1.0" encoding="UTF-8" standalone="no"?>
<!DOCTYPE svg PUBLIC "-//W3C//DTD SVG 1.1//EN" "http://www.w3.org/Graphics/SVG/1.1/DTD/svg11.dtd" >
<svg xmlns="http://www.w3.org/2000/svg">
<metadata>
Generated by SVGconv.
Copyright   : Copyright  1992 ParaType Inc., ParaType Ltd. All rights reserved.
Designer    : ParaType, Ltd
Foundry     : ParaType, Ltd
Foundry URL : http://www.paratype.com
</metadata>
<defs>
<font id="VTBGroupUIWeb-Book" horiz-adv-x="567" >
<font-face units-per-em="1000" ascent="1000" descent="274" >
<font-face-src>
<font-face-name/>
</font-face-src>
</font-face>
<missing-glyph horiz-adv-x="500" />
<glyph unicode="&#13;" horiz-adv-x="230" />
<glyph unicode="&#32;" horiz-adv-x="230" />
<glyph unicode="&#65;" horiz-adv-x="690" d="M292 700h106l277 -700h-110l-67 180h-310l-67 -180h-106zM218 260h251l-124 335l-2 0z" />
<glyph unicode="&#193;" horiz-adv-x="690" d="M292 700h106l277 -700h-110l-67 180h-310l-67 -180h-106zM218 260h251l-124 335h-2zM372 875h120l-111 -125l-80 0z" />
<glyph unicode="&#258;" horiz-adv-x="690" d="M292 700h106l277 -700h-110l-67 180h-310l-67 -180h-106zM218 260h251l-124 335h-2zM345 744q-29 0 -56 7.5q-27 7.5 -49.5 23q-22.5 15.5 -39.5 39q-17 23.5 -26 56.5l70 0q3 -9 9 -18.5q6 -9.5 17.5 -18q11.5 -8.5 29.5 -14q18 -5.5 45 -5.5q27 0 45 5.5q18 5.5 29.5 14q11.5 8.5 17.5 18q6 9.5 9 18.5l70 0q-9 -33 -26 -56.5q-17 -23.5 -39.5 -39q-22.5 -15.5 -50 -23t-55.5 -7.5z" />
<glyph unicode="&#194;" horiz-adv-x="690" d="M292 700h106l277 -700h-110l-67 180h-310l-67 -180h-106zM218 260h251l-124 335h-2zM290 870h110l104 -120h-96l-63 73l-63 -73l-96 0z" />
<glyph unicode="&#196;" horiz-adv-x="690" d="M292 700h106l277 -700h-110l-67 180h-310l-67 -180h-106zM218 260h251l-124 335h-2zM185 850h106v-100h-106zM399 850h106v-100l-106 0z" />
<glyph unicode="&#192;" horiz-adv-x="690" d="M292 700h106l277 -700h-110l-67 180h-310l-67 -180h-106zM218 260h251l-124 335h-2zM200 874h120l66 -124l-80 0z" />
<glyph unicode="&#256;" horiz-adv-x="690" d="M292 700h106l277 -700h-110l-67 180h-310l-67 -180h-106zM218 260h251l-124 335h-2zM195 840h300v-70l-300 0z" />
<glyph unicode="&#260;" horiz-adv-x="690" d="M590 -222q-57 0 -81 24q-24 24 -24 64q0 38 28.5 71.5q28.5 33.5 79.5 62.5l-28 0l-67 180h-310l-67 -180h-106l277 700h106l277 -700q-32 -23 -52.5 -40.5q-20.5 -17.5 -32.5 -32q-12 -14.5 -16.5 -26q-4.5 -11.5 -4.5 -23.5q0 -20 10.5 -32.5q10.5 -12.5 30.5 -12.5q10 0 18.5 1q8.5 1 14.5 3q7 2 13 5l14 -49q-14 -6 -35.5 -10.5q-21.5 -4.5 -44.5 -4.5zt0 0zM218 260h251l-124 335l-2 0z" />
<glyph unicode="&#197;" horiz-adv-x="690" d="M292 700h106l277 -700h-110l-67 180h-310l-67 -180h-106zM218 260h251l-124 335h-2zM345 714q-21 0 -39.5 8q-18.5 8 -32.5 22q-14 14 -22 32.5q-8 18.5 -8 39.5q0 21 8 39.5q8 18.5 22 32.5q14 14 32.5 22q18.5 8 39.5 8q21 0 39.5 -8q18.5 -8 32.5 -22q14 -14 22 -32.5q8 -18.5 8 -39.5q0 -21 -8 -39.5q-8 -18.5 -22 -32.5q-14 -14 -32.5 -22q-18.5 -8 -39.5 -8zt0 0zM345 754q26 0 44 18q18 18 18 44q0 26 -18 44q-18 18 -44 18q-26 0 -44 -18q-18 -18 -18 -44q0 -26 18 -44t44 -18z" />
<glyph unicode="&#195;" horiz-adv-x="690" d="M292 700h106l277 -700h-110l-67 180h-310l-67 -180h-106zM218 260h251l-124 335h-2zM175 748q1 21 8 41.5q7 20.5 19 36q12 15.5 29.5 25q17.5 9.5 39.5 9.5q18 0 38 -7q20 -7 40 -16q20 -9 38.5 -16q18.5 -7 34.5 -7q21 0 30.5 12q9.5 12 14.5 34l48 0q-7 -47 -28 -79.5q-21 -32.5 -67 -32.5q-17 0 -37.5 7q-20.5 7 -40.5 16q-20 9 -39.5 16q-19.5 7 -35.5 7q-23 0 -31.5 -13q-8.5 -13 -12.5 -33l-48 0z" />
<glyph unicode="&#198;" horiz-adv-x="895" d="M413 700h428v-88h-278l12 -206h247v-88h-242l14 -230h247v-88h-340l-10 176h-292l-106 -176h-111zM249 258h237l-20 354l-2 0z" />
<glyph unicode="&#66;" horiz-adv-x="610" d="M93 700h207q67 0 114.5 -12.5q47.5 -12.5 77.5 -36q30 -23.5 44 -57q14 -33.5 14 -74.5q0 -57 -30.5 -98q-30.5 -41 -98.5 -59l0 -2q80 -17 114.5 -61.5q34.5 -44.5 34.5 -108.5q0 -91 -57.5 -141q-57.5 -50 -192.5 -50h-227zM320 82q75 0 109.5 31q34.5 31 34.5 88q0 56 -34.5 87q-34.5 31 -109.5 31h-129v-237zM300 401q80 0 114.5 29.5q34.5 29.5 34.5 79.5q0 49 -34.5 78.5q-34.5 29.5 -114.5 29.5h-109l0 -217z" />
<glyph unicode="&#67;" horiz-adv-x="630" d="M415 -10q-86 0 -153.5 25.5q-67.5 25.5 -115 72.5q-47.5 47 -72.5 113.5q-25 66.5 -25 148.5q0 80 26 146.5q26 66.5 73.5 114q47.5 47.5 115 73.5q67.5 26 151.5 26q35 0 65 -4.5q30 -4.5 53 -9.5q26 -6 48 -14l0 -96q-22 10 -48 18q-23 7 -53 12.5q-30 5.5 -65 5.5q-60 0 -108.5 -19q-48.5 -19 -82.5 -54q-34 -35 -52.5 -85.5q-18.5 -50.5 -18.5 -113.5q0 -63 18.5 -113.5q18.5 -50.5 52.5 -85.5q34 -35 82.5 -54q48.5 -19 108.5 -19q35 0 65 4.5q30 4.5 53 10.5q26 7 48 16l0 -96q-22 -7 -48 -12q-23 -5 -53 -8t-65 -3z" />
<glyph unicode="&#262;" horiz-adv-x="630" d="M415 -10q-86 0 -153.5 25.5q-67.5 25.5 -115 72.5q-47.5 47 -72.5 113.5q-25 66.5 -25 148.5q0 80 26 146.5q26 66.5 73.5 114q47.5 47.5 115 73.5q67.5 26 151.5 26q35 0 65 -4.5q30 -4.5 53 -9.5q26 -6 48 -14l0 -96q-22 10 -48 18q-23 7 -53 12.5q-30 5.5 -65 5.5q-60 0 -108.5 -19q-48.5 -19 -82.5 -54q-34 -35 -52.5 -85.5q-18.5 -50.5 -18.5 -113.5q0 -63 18.5 -113.5q18.5 -50.5 52.5 -85.5q34 -35 82.5 -54q48.5 -19 108.5 -19q35 0 65 4.5q30 4.5 53 10.5q26 7 48 16l0 -96q-22 -7 -48 -12q-23 -5 -53 -8q-30 -3 -65 -3zt0 0zM410 875h120l-111 -125l-80 0z" />
<glyph unicode="&#268;" horiz-adv-x="630" d="M415 -10q-86 0 -153.5 25.5q-67.5 25.5 -115 72.5q-47.5 47 -72.5 113.5q-25 66.5 -25 148.5q0 80 26 146.5q26 66.5 73.5 114q47.5 47.5 115 73.5q67.5 26 151.5 26q35 0 65 -4.5q30 -4.5 53 -9.5q26 -6 48 -14l0 -96q-22 10 -48 18q-23 7 -53 12.5q-30 5.5 -65 5.5q-60 0 -108.5 -19q-48.5 -19 -82.5 -54q-34 -35 -52.5 -85.5q-18.5 -50.5 -18.5 -113.5q0 -63 18.5 -113.5q18.5 -50.5 52.5 -85.5q34 -35 82.5 -54q48.5 -19 108.5 -19q35 0 65 4.5q30 4.5 53 10.5q26 7 48 16l0 -96q-22 -7 -48 -12q-23 -5 -53 -8q-30 -3 -65 -3zt0 0zM224 870h100l59 -80l59 80h100l-104 -120l-110 0z" />
<glyph unicode="&#199;" horiz-adv-x="630" d="M360 -222q-20 0 -38.5 6q-18.5 6 -39.5 22l23 46q11 -7 23 -11q12 -4 25 -4q19 0 34 9.5q15 9.5 15 31.5q0 22 -14.5 31.5q-14.5 9.5 -37.5 9.5q-7 0 -15 -0.5q-8 -0.5 -15 -2.5l11 81q-66 12 -118.5 41.5q-52.5 29.5 -89 75q-36.5 45.5 -55.5 105q-19 59.5 -19 131.5q0 80 26 146.5q26 66.5 73.5 114q47.5 47.5 115 73.5q67.5 26 151.5 26q35 0 65 -4.5q30 -4.5 53 -9.5q26 -6 48 -14l0 -96q-22 10 -48 18q-23 7 -53 12.5q-30 5.5 -65 5.5q-60 0 -108.5 -19q-48.5 -19 -82.5 -54q-34 -35 -52.5 -85.5q-18.5 -50.5 -18.5 -113.5q0 -63 18.5 -113.5q18.5 -50.5 52.5 -85.5q34 -35 82.5 -54q48.5 -19 108.5 -19q35 0 65 4.5q30 4.5 53 10.5q26 7 48 16l0 -96q-22 -7 -48 -12q-23 -5 -53 -8q-30 -3 -65 -3q-7 0 -13 0q-6 0 -12 1l-3 -24q47 -2 67.5 -24q20.5 -22 20.5 -60q0 -47 -32.5 -76t-82.5 -29z" />
<glyph unicode="&#264;" horiz-adv-x="630" d="M415 -10q-86 0 -153.5 25.5q-67.5 25.5 -115 72.5q-47.5 47 -72.5 113.5q-25 66.5 -25 148.5q0 80 26 146.5q26 66.5 73.5 114q47.5 47.5 115 73.5q67.5 26 151.5 26q35 0 65 -4.5q30 -4.5 53 -9.5q26 -6 48 -14l0 -96q-22 10 -48 18q-23 7 -53 12.5q-30 5.5 -65 5.5q-60 0 -108.5 -19q-48.5 -19 -82.5 -54q-34 -35 -52.5 -85.5q-18.5 -50.5 -18.5 -113.5q0 -63 18.5 -113.5q18.5 -50.5 52.5 -85.5q34 -35 82.5 -54q48.5 -19 108.5 -19q35 0 65 4.5q30 4.5 53 10.5q26 7 48 16l0 -96q-22 -7 -48 -12q-23 -5 -53 -8q-30 -3 -65 -3zt0 0zM328 870h110l104 -120h-96l-63 73l-63 -73l-96 0z" />
<glyph unicode="&#266;" horiz-adv-x="630" d="M415 -10q-86 0 -153.5 25.5q-67.5 25.5 -115 72.5q-47.5 47 -72.5 113.5q-25 66.5 -25 148.5q0 80 26 146.5q26 66.5 73.5 114q47.5 47.5 115 73.5q67.5 26 151.5 26q35 0 65 -4.5q30 -4.5 53 -9.5q26 -6 48 -14l0 -96q-22 10 -48 18q-23 7 -53 12.5q-30 5.5 -65 5.5q-60 0 -108.5 -19q-48.5 -19 -82.5 -54q-34 -35 -52.5 -85.5q-18.5 -50.5 -18.5 -113.5q0 -63 18.5 -113.5q18.5 -50.5 52.5 -85.5q34 -35 82.5 -54q48.5 -19 108.5 -19q35 0 65 4.5q30 4.5 53 10.5q26 7 48 16l0 -96q-22 -7 -48 -12q-23 -5 -53 -8q-30 -3 -65 -3zt0 0zM327 854h112v-102l-112 0z" />
<glyph unicode="&#68;" horiz-adv-x="720" d="M93 700h234q78 0 141.5 -25q63.5 -25 108.5 -71q45 -46 69.5 -111q24.5 -65 24.5 -145q0 -84 -24 -149q-24 -65 -68.5 -109q-44.5 -44 -108.5 -67q-64 -23 -143 -23h-234zM326 88q118 0 178.5 65q60.5 65 60.5 187q0 63 -16 113.5q-16 50.5 -45.5 85.5q-29.5 35 -71.5 54q-42 19 -94 19h-147l0 -524z" />
<glyph unicode="&#208;" horiz-adv-x="720" d="M93 330h-68v64h68v306h234q78 0 141.5 -25q63.5 -25 108.5 -71q45 -46 69.5 -111q24.5 -65 24.5 -145q0 -84 -24 -149q-24 -65 -68.5 -109q-44.5 -44 -108.5 -67q-64 -23 -143 -23h-234zM326 88q118 0 178.5 65q60.5 65 60.5 187q0 63 -16 113.5q-16 50.5 -45.5 85.5q-29.5 35 -71.5 54q-42 19 -94 19h-147v-218h185v-64h-185l0 -242z" />
<glyph unicode="&#270;" horiz-adv-x="720" d="M93 700h234q78 0 141.5 -25q63.5 -25 108.5 -71q45 -46 69.5 -111q24.5 -65 24.5 -145q0 -84 -24 -149q-24 -65 -68.5 -109q-44.5 -44 -108.5 -67q-64 -23 -143 -23h-234zM326 88q118 0 178.5 65q60.5 65 60.5 187q0 63 -16 113.5q-16 50.5 -45.5 85.5q-29.5 35 -71.5 54q-42 19 -94 19h-147v-524zM201 870h100l59 -80l59 80h100l-104 -120l-110 0z" />
<glyph unicode="&#272;" horiz-adv-x="720" d="M93 330h-68v64h68v306h234q78 0 141.5 -25q63.5 -25 108.5 -71q45 -46 69.5 -111q24.5 -65 24.5 -145q0 -84 -24 -149q-24 -65 -68.5 -109q-44.5 -44 -108.5 -67q-64 -23 -143 -23h-234zM326 88q118 0 178.5 65q60.5 65 60.5 187q0 63 -16 113.5q-16 50.5 -45.5 85.5q-29.5 35 -71.5 54q-42 19 -94 19h-147v-218h185v-64h-185l0 -242z" />
<glyph unicode="&#69;" horiz-adv-x="540" d="M93 700h393v-88h-295v-205h275v-88h-275v-231h295v-88l-393 0z" />
<glyph unicode="&#201;" horiz-adv-x="540" d="M93 700h393v-88h-295v-205h275v-88h-275v-231h295v-88h-393zM317 875h120l-111 -125l-80 0z" />
<glyph unicode="&#282;" horiz-adv-x="540" d="M93 700h393v-88h-295v-205h275v-88h-275v-231h295v-88h-393zM131 870h100l59 -80l59 80h100l-104 -120l-110 0z" />
<glyph unicode="&#202;" horiz-adv-x="540" d="M93 700h393v-88h-295v-205h275v-88h-275v-231h295v-88h-393zM235 870h110l104 -120h-96l-63 73l-63 -73l-96 0z" />
<glyph unicode="&#203;" horiz-adv-x="540" d="M93 700h393v-88h-295v-205h275v-88h-275v-231h295v-88h-393zM130 850h106v-100h-106zM344 850h106v-100l-106 0z" />
<glyph unicode="&#278;" horiz-adv-x="540" d="M93 700h393v-88h-295v-205h275v-88h-275v-231h295v-88h-393zM234 854h112v-102l-112 0z" />
<glyph unicode="&#200;" horiz-adv-x="540" d="M93 700h393v-88h-295v-205h275v-88h-275v-231h295v-88h-393zM145 874h120l66 -124l-80 0z" />
<glyph unicode="&#274;" horiz-adv-x="540" d="M93 700h393v-88h-295v-205h275v-88h-275v-231h295v-88h-393zM140 840h300v-70l-300 0z" />
<glyph unicode="&#280;" horiz-adv-x="540" d="M93 700h393v-88h-295v-205h275v-88h-275v-231h295v-88q-32 -23 -52.5 -40.5q-20.5 -17.5 -32.5 -32q-12 -14.5 -16.5 -26q-4.5 -11.5 -4.5 -23.5q0 -20 10.5 -32.5q10.5 -12.5 30.5 -12.5q10 0 18.5 1q8.5 1 14.5 3q7 2 13 5l14 -49q-14 -6 -35.5 -10.5q-21.5 -4.5 -44.5 -4.5q-57 0 -81 24q-24 24 -24 64q0 38 28.5 71.5q28.5 33.5 79.5 62.5l-311 0z" />
<glyph unicode="&#70;" horiz-adv-x="520" d="M93 700h392v-88h-294v-205h282v-88h-282v-319l-98 0z" />
<glyph unicode="&#71;" horiz-adv-x="715" d="M414 -10q-87 0 -155 25q-68 25 -114.5 72q-46.5 47 -71 113.5q-24.5 66.5 -24.5 149.5q0 82 25.5 148.5q25.5 66.5 73.5 113.5q48 47 116.5 72.5q68.5 25.5 154.5 25.5q70 0 123 -13.5q53 -13.5 77 -26.5l0 -96q-24 16 -77 32q-53 16 -123 16q-60 0 -109 -19q-49 -19 -83.5 -54q-34.5 -35 -53 -85.5q-18.5 -50.5 -18.5 -113.5q0 -128 68 -200q68 -72 200 -72q28 0 57.5 2q29.5 2 55.5 7l0 206h-162v88h260v-362q-38 -12 -91.5 -20.5t-128.5 -8.5z" />
<glyph unicode="&#286;" horiz-adv-x="715" d="M414 -10q-87 0 -155 25q-68 25 -114.5 72q-46.5 47 -71 113.5q-24.5 66.5 -24.5 149.5q0 82 25.5 148.5q25.5 66.5 73.5 113.5q48 47 116.5 72.5q68.5 25.5 154.5 25.5q70 0 123 -13.5q53 -13.5 77 -26.5l0 -96q-24 16 -77 32q-53 16 -123 16q-60 0 -109 -19q-49 -19 -83.5 -54q-34.5 -35 -53 -85.5q-18.5 -50.5 -18.5 -113.5q0 -128 68 -200q68 -72 200 -72q28 0 57.5 2q29.5 2 55.5 7l0 206h-162v88h260v-362q-38 -12 -91.5 -20.5q-53.5 -8.5 -128.5 -8.5zt0 0zM388 744q-29 0 -56 7.5q-27 7.5 -49.5 23q-22.5 15.5 -39.5 39q-17 23.5 -26 56.5l70 0q3 -9 9 -18.5q6 -9.5 17.5 -18q11.5 -8.5 29.5 -14q18 -5.5 45 -5.5q27 0 45 5.5q18 5.5 29.5 14q11.5 8.5 17.5 18q6 9.5 9 18.5l70 0q-9 -33 -26 -56.5q-17 -23.5 -39.5 -39q-22.5 -15.5 -50 -23t-55.5 -7.5z" />
<glyph unicode="&#486;" horiz-adv-x="715" d="M414 -10q-87 0 -155 25q-68 25 -114.5 72q-46.5 47 -71 113.5q-24.5 66.5 -24.5 149.5q0 82 25.5 148.5q25.5 66.5 73.5 113.5q48 47 116.5 72.5q68.5 25.5 154.5 25.5q70 0 123 -13.5q53 -13.5 77 -26.5l0 -96q-24 16 -77 32q-53 16 -123 16q-60 0 -109 -19q-49 -19 -83.5 -54q-34.5 -35 -53 -85.5q-18.5 -50.5 -18.5 -113.5q0 -128 68 -200q68 -72 200 -72q28 0 57.5 2q29.5 2 55.5 7l0 206h-162v88h260v-362q-38 -12 -91.5 -20.5q-53.5 -8.5 -128.5 -8.5zt0 0zM229 870h100l59 -80l59 80h100l-104 -120l-110 0z" />
<glyph unicode="&#284;" horiz-adv-x="715" d="M414 -10q-87 0 -155 25q-68 25 -114.5 72q-46.5 47 -71 113.5q-24.5 66.5 -24.5 149.5q0 82 25.5 148.5q25.5 66.5 73.5 113.5q48 47 116.5 72.5q68.5 25.5 154.5 25.5q70 0 123 -13.5q53 -13.5 77 -26.5l0 -96q-24 16 -77 32q-53 16 -123 16q-60 0 -109 -19q-49 -19 -83.5 -54q-34.5 -35 -53 -85.5q-18.5 -50.5 -18.5 -113.5q0 -128 68 -200q68 -72 200 -72q28 0 57.5 2q29.5 2 55.5 7l0 206h-162v88h260v-362q-38 -12 -91.5 -20.5q-53.5 -8.5 -128.5 -8.5zt0 0zM333 870h110l104 -120h-96l-63 73l-63 -73l-96 0z" />
<glyph unicode="&#288;" horiz-adv-x="715" d="M414 -10q-87 0 -155 25q-68 25 -114.5 72q-46.5 47 -71 113.5q-24.5 66.5 -24.5 149.5q0 82 25.5 148.5q25.5 66.5 73.5 113.5q48 47 116.5 72.5q68.5 25.5 154.5 25.5q70 0 123 -13.5q53 -13.5 77 -26.5l0 -96q-24 16 -77 32q-53 16 -123 16q-60 0 -109 -19q-49 -19 -83.5 -54q-34.5 -35 -53 -85.5q-18.5 -50.5 -18.5 -113.5q0 -128 68 -200q68 -72 200 -72q28 0 57.5 2q29.5 2 55.5 7l0 206h-162v88h260v-362q-38 -12 -91.5 -20.5q-53.5 -8.5 -128.5 -8.5zt0 0zM332 854h112v-102l-112 0z" />
<glyph unicode="&#72;" horiz-adv-x="720" d="M93 700h98v-293h338v293h98v-700h-98v319h-338v-319l-98 0z" />
<glyph unicode="&#294;" horiz-adv-x="730" d="M98 510h-70v68h70v122h98v-122h338v122h98v-122h70v-68h-70v-510h-98v319h-338v-319h-98zM534 407v103h-338l0 -103z" />
<glyph unicode="&#292;" horiz-adv-x="720" d="M93 700h98v-293h338v293h98v-700h-98v319h-338v-319h-98zM305 870h110l104 -120h-96l-63 73l-63 -73l-96 0z" />
<glyph unicode="&#73;" horiz-adv-x="310" d="M106 700h98v-700l-98 0z" />
<glyph unicode="&#306;" horiz-adv-x="650" d="M106 700h98v-700h-98zM361 -10q-29 0 -48 3q-19 3 -29 7l0 88q24 -7 38.5 -8.5q14.5 -1.5 24.5 -1.5q66 0 90 35q24 35 24 100v487h98v-519q0 -99 -52 -145t-146 -46z" />
<glyph unicode="&#205;" horiz-adv-x="310" d="M106 700h98v-700h-98zM182 875h120l-111 -125l-80 0z" />
<glyph unicode="&#206;" horiz-adv-x="310" d="M106 700h98v-700h-98zM100 870h110l84 -120h-90l-49 70l-49 -70l-90 0z" />
<glyph unicode="&#207;" horiz-adv-x="310" d="M106 700h98v-700h-98zM15 850h106v-100h-106zM189 850h106v-100l-106 0z" />
<glyph unicode="&#304;" horiz-adv-x="310" d="M106 700h98v-700h-98zM99 854h112v-102l-112 0z" />
<glyph unicode="&#204;" horiz-adv-x="310" d="M106 700h98v-700h-98zM10 874h120l66 -124l-80 0z" />
<glyph unicode="&#298;" horiz-adv-x="310" d="M106 700h98v-700h-98zM35 840h240v-70l-240 0z" />
<glyph unicode="&#302;" horiz-adv-x="310" d="M106 700h98v-700q-32 -23 -52.5 -40.5q-20.5 -17.5 -32.5 -32q-12 -14.5 -16.5 -26q-4.5 -11.5 -4.5 -23.5q0 -20 10.5 -32.5q10.5 -12.5 30.5 -12.5q10 0 18.5 1q8.5 1 14.5 3q7 2 13 5l14 -49q-14 -6 -35.5 -10.5q-21.5 -4.5 -44.5 -4.5q-57 0 -81 24q-24 24 -24 64q0 38 28.5 71.5q28.5 33.5 79.5 62.5l-16 0z" />
<glyph unicode="&#74;" horiz-adv-x="380" d="M91 -10q-29 0 -48 3q-19 3 -29 7l0 88q24 -7 38.5 -8.5q14.5 -1.5 24.5 -1.5q66 0 90 35q24 35 24 100v487h98v-519q0 -99 -52 -145t-146 -46z" />
<glyph unicode="&#308;" horiz-adv-x="380" d="M91 -10q-29 0 -48 3q-19 3 -29 7l0 88q24 -7 38.5 -8.5q14.5 -1.5 24.5 -1.5q66 0 90 35q24 35 24 100v487h98v-519q0 -99 -52 -145q-52 -46 -146 -46zt0 0zM184 870h110l104 -120h-96l-63 73l-63 -73l-96 0z" />
<glyph unicode="&#75;" horiz-adv-x="645" d="M93 700h98v-288h103l202 288h121l-240 -331l263 -369h-122l-225 324h-102v-324l-98 0z" />
<glyph unicode="&#76;" horiz-adv-x="520" d="M93 700h98v-612h313v-88l-411 0z" />
<glyph unicode="&#313;" horiz-adv-x="520" d="M93 700h98v-612h313v-88h-411zM166 875h120l-111 -125l-80 0z" />
<glyph unicode="&#317;" horiz-adv-x="520" d="M372 700h110l-74 -200h-76zM93 700h98v-612h313v-88l-411 0z" />
<glyph unicode="&#319;" horiz-adv-x="520" d="M348 426h108v-110h-108zM93 700h98v-612h313v-88l-411 0z" />
<glyph unicode="&#321;" horiz-adv-x="520" d="M93 275l-93 -50v81l93 50v344h98v-292l189 102v-81l-189 -102v-239h313v-88l-411 0z" />
<glyph unicode="&#77;" horiz-adv-x="860" d="M93 700h159l180 -385l181 385h154v-700h-98v604h-3l-196 -404h-80l-196 404h-3v-604l-98 0z" />
<glyph unicode="&#78;" horiz-adv-x="730" d="M93 700h130l316 -570h2l-2 89v481h98v-700h-130l-316 570h-2l2 -80v-490l-98 0z" />
<glyph unicode="&#323;" horiz-adv-x="730" d="M93 700h130l316 -570h2l-2 89v481h98v-700h-130l-316 570h-2l2 -80v-490h-98zM399 875h120l-111 -125l-80 0z" />
<glyph unicode="&#327;" horiz-adv-x="730" d="M93 700h130l316 -570h2l-2 89v481h98v-700h-130l-316 570h-2l2 -80v-490h-98zM213 870h100l59 -80l59 80h100l-104 -120l-110 0z" />
<glyph unicode="&#209;" horiz-adv-x="730" d="M93 700h130l316 -570h2l-2 89v481h98v-700h-130l-316 570h-2l2 -80v-490h-98zM202 748q1 21 8 41.5q7 20.5 19 36q12 15.5 29.5 25q17.5 9.5 39.5 9.5q18 0 38 -7q20 -7 40 -16q20 -9 38.5 -16q18.5 -7 34.5 -7q21 0 30.5 12q9.5 12 14.5 34l48 0q-7 -47 -28 -79.5q-21 -32.5 -67 -32.5q-17 0 -37.5 7q-20.5 7 -40.5 16q-20 9 -39.5 16q-19.5 7 -35.5 7q-23 0 -31.5 -13q-8.5 -13 -12.5 -33l-48 0z" />
<glyph unicode="&#79;" horiz-adv-x="750" d="M375 -10q-77 0 -137.5 27q-60.5 27 -102.5 75q-42 48 -64 114q-22 66 -22 144q0 79 22.5 145q22.5 66 64.5 114q42 48 102.5 74.5q60.5 26.5 136.5 26.5q77 0 137.5 -27q60.5 -27 102.5 -75q42 -48 64 -114q22 -66 22 -144q0 -79 -22.5 -145q-22.5 -66 -64.5 -114q-42 -48 -102.5 -74.5q-60.5 -26.5 -136.5 -26.5zt0 0zM375 78q54 0 95.5 21.5q41.5 21.5 69.5 59q28 37.5 42.5 86.5q14.5 49 14.5 105q0 57 -15 106.5q-15 49.5 -43.5 86.5q-28.5 37 -69.5 58q-41 21 -94 21q-54 0 -95 -21.5q-41 -21.5 -69.5 -58.5q-28.5 -37 -43 -86.5q-14.5 -49.5 -14.5 -105.5q0 -57 14.5 -106.5q14.5 -49.5 43 -86q28.5 -36.5 69.5 -58t95 -21.5z" />
<glyph unicode="&#211;" horiz-adv-x="750" d="M375 -10q-77 0 -137.5 27q-60.5 27 -102.5 75q-42 48 -64 114q-22 66 -22 144q0 79 22.5 145q22.5 66 64.5 114q42 48 102.5 74.5q60.5 26.5 136.5 26.5q77 0 137.5 -27q60.5 -27 102.5 -75q42 -48 64 -114q22 -66 22 -144q0 -79 -22.5 -145q-22.5 -66 -64.5 -114q-42 -48 -102.5 -74.5q-60.5 -26.5 -136.5 -26.5zt0 0zM375 78q54 0 95.5 21.5q41.5 21.5 69.5 59q28 37.5 42.5 86.5q14.5 49 14.5 105q0 57 -15 106.5q-15 49.5 -43.5 86.5q-28.5 37 -69.5 58q-41 21 -94 21q-54 0 -95 -21.5q-41 -21.5 -69.5 -58.5q-28.5 -37 -43 -86.5q-14.5 -49.5 -14.5 -105.5q0 -57 14.5 -106.5q14.5 -49.5 43 -86q28.5 -36.5 69.5 -58q41 -21.5 95 -21.5zt0 0zM402 875h120l-111 -125l-80 0z" />
<glyph unicode="&#334;" horiz-adv-x="750" d="M375 -10q-77 0 -137.5 27q-60.5 27 -102.5 75q-42 48 -64 114q-22 66 -22 144q0 79 22.5 145q22.5 66 64.5 114q42 48 102.5 74.5q60.5 26.5 136.5 26.5q77 0 137.5 -27q60.5 -27 102.5 -75q42 -48 64 -114q22 -66 22 -144q0 -79 -22.5 -145q-22.5 -66 -64.5 -114q-42 -48 -102.5 -74.5q-60.5 -26.5 -136.5 -26.5zt0 0zM375 78q54 0 95.5 21.5q41.5 21.5 69.5 59q28 37.5 42.5 86.5q14.5 49 14.5 105q0 57 -15 106.5q-15 49.5 -43.5 86.5q-28.5 37 -69.5 58q-41 21 -94 21q-54 0 -95 -21.5q-41 -21.5 -69.5 -58.5q-28.5 -37 -43 -86.5q-14.5 -49.5 -14.5 -105.5q0 -57 14.5 -106.5q14.5 -49.5 43 -86q28.5 -36.5 69.5 -58q41 -21.5 95 -21.5zt0 0zM375 744q-29 0 -56 7.5q-27 7.5 -49.5 23q-22.5 15.5 -39.5 39q-17 23.5 -26 56.5l70 0q3 -9 9 -18.5q6 -9.5 17.5 -18q11.5 -8.5 29.5 -14q18 -5.5 45 -5.5q27 0 45 5.5q18 5.5 29.5 14q11.5 8.5 17.5 18q6 9.5 9 18.5l70 0q-9 -33 -26 -56.5q-17 -23.5 -39.5 -39q-22.5 -15.5 -50 -23t-55.5 -7.5z" />
<glyph unicode="&#212;" horiz-adv-x="750" d="M375 -10q-77 0 -137.5 27q-60.5 27 -102.5 75q-42 48 -64 114q-22 66 -22 144q0 79 22.5 145q22.5 66 64.5 114q42 48 102.5 74.5q60.5 26.5 136.5 26.5q77 0 137.5 -27q60.5 -27 102.5 -75q42 -48 64 -114q22 -66 22 -144q0 -79 -22.5 -145q-22.5 -66 -64.5 -114q-42 -48 -102.5 -74.5q-60.5 -26.5 -136.5 -26.5zt0 0zM375 78q54 0 95.5 21.5q41.5 21.5 69.5 59q28 37.5 42.5 86.5q14.5 49 14.5 105q0 57 -15 106.5q-15 49.5 -43.5 86.5q-28.5 37 -69.5 58q-41 21 -94 21q-54 0 -95 -21.5q-41 -21.5 -69.5 -58.5q-28.5 -37 -43 -86.5q-14.5 -49.5 -14.5 -105.5q0 -57 14.5 -106.5q14.5 -49.5 43 -86q28.5 -36.5 69.5 -58q41 -21.5 95 -21.5zt0 0zM320 870h110l104 -120h-96l-63 73l-63 -73l-96 0z" />
<glyph unicode="&#214;" horiz-adv-x="750" d="M375 -10q-77 0 -137.5 27q-60.5 27 -102.5 75q-42 48 -64 114q-22 66 -22 144q0 79 22.5 145q22.5 66 64.5 114q42 48 102.5 74.5q60.5 26.5 136.5 26.5q77 0 137.5 -27q60.5 -27 102.5 -75q42 -48 64 -114q22 -66 22 -144q0 -79 -22.5 -145q-22.5 -66 -64.5 -114q-42 -48 -102.5 -74.5q-60.5 -26.5 -136.5 -26.5zt0 0zM375 78q54 0 95.5 21.5q41.5 21.5 69.5 59q28 37.5 42.5 86.5q14.5 49 14.5 105q0 57 -15 106.5q-15 49.5 -43.5 86.5q-28.5 37 -69.5 58q-41 21 -94 21q-54 0 -95 -21.5q-41 -21.5 -69.5 -58.5q-28.5 -37 -43 -86.5q-14.5 -49.5 -14.5 -105.5q0 -57 14.5 -106.5q14.5 -49.5 43 -86q28.5 -36.5 69.5 -58q41 -21.5 95 -21.5zt0 0zM215 850h106v-100h-106zM429 850h106v-100l-106 0z" />
<glyph unicode="&#210;" horiz-adv-x="750" d="M375 -10q-77 0 -137.5 27q-60.5 27 -102.5 75q-42 48 -64 114q-22 66 -22 144q0 79 22.5 145q22.5 66 64.5 114q42 48 102.5 74.5q60.5 26.5 136.5 26.5q77 0 137.5 -27q60.5 -27 102.5 -75q42 -48 64 -114q22 -66 22 -144q0 -79 -22.5 -145q-22.5 -66 -64.5 -114q-42 -48 -102.5 -74.5q-60.5 -26.5 -136.5 -26.5zt0 0zM375 78q54 0 95.5 21.5q41.5 21.5 69.5 59q28 37.5 42.5 86.5q14.5 49 14.5 105q0 57 -15 106.5q-15 49.5 -43.5 86.5q-28.5 37 -69.5 58q-41 21 -94 21q-54 0 -95 -21.5q-41 -21.5 -69.5 -58.5q-28.5 -37 -43 -86.5q-14.5 -49.5 -14.5 -105.5q0 -57 14.5 -106.5q14.5 -49.5 43 -86q28.5 -36.5 69.5 -58q41 -21.5 95 -21.5zt0 0zM230 874h120l66 -124l-80 0z" />
<glyph unicode="&#336;" horiz-adv-x="750" d="M375 -10q-77 0 -137.5 27q-60.5 27 -102.5 75q-42 48 -64 114q-22 66 -22 144q0 79 22.5 145q22.5 66 64.5 114q42 48 102.5 74.5q60.5 26.5 136.5 26.5q77 0 137.5 -27q60.5 -27 102.5 -75q42 -48 64 -114q22 -66 22 -144q0 -79 -22.5 -145q-22.5 -66 -64.5 -114q-42 -48 -102.5 -74.5q-60.5 -26.5 -136.5 -26.5zt0 0zM375 78q54 0 95.5 21.5q41.5 21.5 69.5 59q28 37.5 42.5 86.5q14.5 49 14.5 105q0 57 -15 106.5q-15 49.5 -43.5 86.5q-28.5 37 -69.5 58q-41 21 -94 21q-54 0 -95 -21.5q-41 -21.5 -69.5 -58.5q-28.5 -37 -43 -86.5q-14.5 -49.5 -14.5 -105.5q0 -57 14.5 -106.5q14.5 -49.5 43 -86q28.5 -36.5 69.5 -58q41 -21.5 95 -21.5zt0 0zM508 880h110l-128 -130h-70zM327 880h110l-128 -130l-70 0z" />
<glyph unicode="&#332;" horiz-adv-x="750" d="M375 -10q-77 0 -137.5 27q-60.5 27 -102.5 75q-42 48 -64 114q-22 66 -22 144q0 79 22.5 145q22.5 66 64.5 114q42 48 102.5 74.5q60.5 26.5 136.5 26.5q77 0 137.5 -27q60.5 -27 102.5 -75q42 -48 64 -114q22 -66 22 -144q0 -79 -22.5 -145q-22.5 -66 -64.5 -114q-42 -48 -102.5 -74.5q-60.5 -26.5 -136.5 -26.5zt0 0zM375 78q54 0 95.5 21.5q41.5 21.5 69.5 59q28 37.5 42.5 86.5q14.5 49 14.5 105q0 57 -15 106.5q-15 49.5 -43.5 86.5q-28.5 37 -69.5 58q-41 21 -94 21q-54 0 -95 -21.5q-41 -21.5 -69.5 -58.5q-28.5 -37 -43 -86.5q-14.5 -49.5 -14.5 -105.5q0 -57 14.5 -106.5q14.5 -49.5 43 -86q28.5 -36.5 69.5 -58q41 -21.5 95 -21.5zt0 0zM225 840h300v-70l-300 0z" />
<glyph unicode="&#216;" horiz-adv-x="750" d="M375 -10q-63 0 -114 18q-51 18 -91 50l-83 -99l-48 40l87 104q-38 48 -57.5 110.5q-19.5 62.5 -19.5 136.5q0 79 22.5 145q22.5 66 64.5 114q42 48 102.5 74.5q60.5 26.5 136.5 26.5q62 0 112.5 -17.5q50.5 -17.5 90.5 -49.5l83 98l50 -41l-87 -104q38 -48 57.5 -110.5q19.5 -62.5 19.5 -135.5q0 -79 -22.5 -145q-22.5 -66 -64.5 -114q-42 -48 -102.5 -74.5q-60.5 -26.5 -136.5 -26.5zt0 0zM375 78q54 0 95.5 21.5q41.5 21.5 69.5 59q28 37.5 42.5 86.5q14.5 49 14.5 105q0 96 -41 166l-323 -384q27 -26 62 -40q35 -14 80 -14zt0 0zM153 350q0 -48 10 -90q10 -42 30 -77l323 385q-27 26 -62.5 40q-35.5 14 -78.5 14q-54 0 -95 -21.5q-41 -21.5 -69.5 -58.5q-28.5 -37 -43 -86.5t-14.5 -105.5z" />
<glyph unicode="&#213;" horiz-adv-x="750" d="M375 -10q-77 0 -137.5 27q-60.5 27 -102.5 75q-42 48 -64 114q-22 66 -22 144q0 79 22.5 145q22.5 66 64.5 114q42 48 102.5 74.5q60.5 26.5 136.5 26.5q77 0 137.5 -27q60.5 -27 102.5 -75q42 -48 64 -114q22 -66 22 -144q0 -79 -22.5 -145q-22.5 -66 -64.5 -114q-42 -48 -102.5 -74.5q-60.5 -26.5 -136.5 -26.5zt0 0zM375 78q54 0 95.5 21.5q41.5 21.5 69.5 59q28 37.5 42.5 86.5q14.5 49 14.5 105q0 57 -15 106.5q-15 49.5 -43.5 86.5q-28.5 37 -69.5 58q-41 21 -94 21q-54 0 -95 -21.5q-41 -21.5 -69.5 -58.5q-28.5 -37 -43 -86.5q-14.5 -49.5 -14.5 -105.5q0 -57 14.5 -106.5q14.5 -49.5 43 -86q28.5 -36.5 69.5 -58q41 -21.5 95 -21.5zt0 0zM205 748q1 21 8 41.5q7 20.5 19 36q12 15.5 29.5 25q17.5 9.5 39.5 9.5q18 0 38 -7q20 -7 40 -16q20 -9 38.5 -16q18.5 -7 34.5 -7q21 0 30.5 12q9.5 12 14.5 34l48 0q-7 -47 -28 -79.5q-21 -32.5 -67 -32.5q-17 0 -37.5 7q-20.5 7 -40.5 16q-20 9 -39.5 16q-19.5 7 -35.5 7q-23 0 -31.5 -13q-8.5 -13 -12.5 -33l-48 0z" />
<glyph unicode="&#338;" horiz-adv-x="940" d="M387 -8q-77 0 -139 24.5q-62 24.5 -106.5 71q-44.5 46.5 -68.5 112.5q-24 66 -24 150q0 84 24 150q24 66 69 112.5q45 46.5 108.5 71q63.5 24.5 142.5 24.5q25 0 46.5 -1.5q21.5 -1.5 47 -3q25.5 -1.5 57.5 -2.5q32 -1 77 -1h265v-88h-297v-205h277v-88h-277v-231h297v-88h-344q-15 0 -35 -1.5q-20 -1.5 -41.5 -3q-21.5 -1.5 -42 -2.5q-20.5 -1 -36.5 -1zt0 0zM402 80q17 0 41.5 1.5q24.5 1.5 47.5 6.5l0 524q-23 3 -46.5 5.5q-23.5 2.5 -46.5 2.5q-54 0 -98.5 -18.5q-44.5 -18.5 -77 -53q-32.5 -34.5 -50 -84.5q-17.5 -50 -17.5 -114q0 -64 17 -114q17 -50 49.5 -84.5q32.5 -34.5 78 -53t102.5 -18.5z" />
<glyph unicode="&#80;" horiz-adv-x="600" d="M93 700h224q130 0 192 -57.5q62 -57.5 62 -163.5q0 -106 -62 -163.5q-62 -57.5 -192 -57.5h-126v-258h-98zM317 346q77 0 113.5 33.5q36.5 33.5 36.5 99.5q0 66 -36.5 99.5q-36.5 33.5 -113.5 33.5h-126l0 -266z" />
<glyph unicode="&#222;" horiz-adv-x="600" d="M93 700h98v-116h121q137 0 198 -60q61 -60 61 -168q0 -108 -61 -167q-61 -59 -198 -59h-121v-130h-98zM312 218q84 0 118.5 36q34.5 36 34.5 106q0 67 -34.5 101.5q-34.5 34.5 -118.5 34.5h-121l0 -278z" />
<glyph unicode="&#81;" horiz-adv-x="750" d="M375 -10q-77 0 -137.5 27q-60.5 27 -102.5 75q-42 48 -64 114q-22 66 -22 144q0 79 22.5 145q22.5 66 64.5 114q42 48 102.5 74.5q60.5 26.5 136.5 26.5q77 0 137.5 -27q60.5 -27 102.5 -75q42 -48 64 -114q22 -66 22 -144q0 -113 -44.5 -197.5q-44.5 -84.5 -125.5 -126.5l168 -152h-124l-133 122q-32 -6 -67 -6zt0 0zM375 78q54 0 95.5 21.5q41.5 21.5 69.5 59q28 37.5 42.5 86.5q14.5 49 14.5 105q0 57 -15 106.5q-15 49.5 -43.5 86.5q-28.5 37 -69.5 58q-41 21 -94 21q-54 0 -95 -21.5q-41 -21.5 -69.5 -58.5q-28.5 -37 -43 -86.5q-14.5 -49.5 -14.5 -105.5q0 -57 14.5 -106.5q14.5 -49.5 43 -86q28.5 -36.5 69.5 -58t95 -21.5z" />
<glyph unicode="&#82;" horiz-adv-x="625" d="M361 267q-12 -2 -24.5 -2q-12.5 0 -25.5 0h-120v-265h-98v700h218q128 0 189 -57q61 -57 61 -163q0 -70 -27.5 -116q-27.5 -46 -76.5 -71l150 -293h-121zM311 348q75 0 109.5 33q34.5 33 34.5 99q0 66 -34.5 99q-34.5 33 -109.5 33h-120l0 -264z" />
<glyph unicode="&#340;" horiz-adv-x="625" d="M361 267q-12 -2 -24.5 -2q-12.5 0 -25.5 0h-120v-265h-98v700h218q128 0 189 -57q61 -57 61 -163q0 -70 -27.5 -116q-27.5 -46 -76.5 -71l150 -293h-121zM311 348q75 0 109.5 33q34.5 33 34.5 99q0 66 -34.5 99q-34.5 33 -109.5 33h-120v-264zM340 875h120l-111 -125l-80 0z" />
<glyph unicode="&#344;" horiz-adv-x="625" d="M361 267q-12 -2 -24.5 -2q-12.5 0 -25.5 0h-120v-265h-98v700h218q128 0 189 -57q61 -57 61 -163q0 -70 -27.5 -116q-27.5 -46 -76.5 -71l150 -293h-121zM311 348q75 0 109.5 33q34.5 33 34.5 99q0 66 -34.5 99q-34.5 33 -109.5 33h-120v-264zM154 870h100l59 -80l59 80h100l-104 -120l-110 0z" />
<glyph unicode="&#83;" horiz-adv-x="530" d="M223 -10q-29 0 -70 6q-41 6 -90 23l0 92q16 -7 37 -13q21 -6 43 -10.5q22 -4.5 43 -7q21 -2.5 39 -2.5q34 0 61 9.5q27 9.5 45.5 25q18.5 15.5 28 36q9.5 20.5 9.5 42.5q0 24 -11.5 43q-11.5 19 -30 34.5q-18.5 15.5 -43 28.5q-24.5 13 -51.5 26q-32 15 -63.5 32.5q-31.5 17.5 -57 40.5q-25.5 23 -41.5 53q-16 30 -16 72q0 41 15 76q15 35 44.5 60q29.5 25 73.5 39q44 14 102 14q57 0 96 -9.5q39 -9.5 56 -15.5l0 -92q-42 18 -84 23.5q-42 5.5 -68 5.5q-70 0 -99.5 -26q-29.5 -26 -29.5 -62q0 -23 10.5 -40.5q10.5 -17.5 28.5 -32q18 -14.5 41 -27q23 -12.5 49 -24.5q33 -15 66 -33q33 -18 59.5 -42.5q26.5 -24.5 43 -58.5q16.5 -34 16.5 -81q0 -45 -16 -82.5q-16 -37.5 -48 -64.5q-32 -27 -79 -42.5t-109 -15.5z" />
<glyph unicode="&#346;" horiz-adv-x="530" d="M223 -10q-29 0 -70 6q-41 6 -90 23l0 92q16 -7 37 -13q21 -6 43 -10.5q22 -4.5 43 -7q21 -2.5 39 -2.5q34 0 61 9.5q27 9.5 45.5 25q18.5 15.5 28 36q9.5 20.5 9.5 42.5q0 24 -11.5 43q-11.5 19 -30 34.5q-18.5 15.5 -43 28.5q-24.5 13 -51.5 26q-32 15 -63.5 32.5q-31.5 17.5 -57 40.5q-25.5 23 -41.5 53q-16 30 -16 72q0 41 15 76q15 35 44.5 60q29.5 25 73.5 39q44 14 102 14q57 0 96 -9.5q39 -9.5 56 -15.5l0 -92q-42 18 -84 23.5q-42 5.5 -68 5.5q-70 0 -99.5 -26q-29.5 -26 -29.5 -62q0 -23 10.5 -40.5q10.5 -17.5 28.5 -32q18 -14.5 41 -27q23 -12.5 49 -24.5q33 -15 66 -33q33 -18 59.5 -42.5q26.5 -24.5 43 -58.5q16.5 -34 16.5 -81q0 -45 -16 -82.5q-16 -37.5 -48 -64.5q-32 -27 -79 -42.5q-47 -15.5 -109 -15.5zt0 0zM292 875h120l-111 -125l-80 0z" />
<glyph unicode="&#352;" horiz-adv-x="530" d="M223 -10q-29 0 -70 6q-41 6 -90 23l0 92q16 -7 37 -13q21 -6 43 -10.5q22 -4.5 43 -7q21 -2.5 39 -2.5q34 0 61 9.5q27 9.5 45.5 25q18.5 15.5 28 36q9.5 20.5 9.5 42.5q0 24 -11.5 43q-11.5 19 -30 34.5q-18.5 15.5 -43 28.5q-24.5 13 -51.5 26q-32 15 -63.5 32.5q-31.5 17.5 -57 40.5q-25.5 23 -41.5 53q-16 30 -16 72q0 41 15 76q15 35 44.5 60q29.5 25 73.5 39q44 14 102 14q57 0 96 -9.5q39 -9.5 56 -15.5l0 -92q-42 18 -84 23.5q-42 5.5 -68 5.5q-70 0 -99.5 -26q-29.5 -26 -29.5 -62q0 -23 10.5 -40.5q10.5 -17.5 28.5 -32q18 -14.5 41 -27q23 -12.5 49 -24.5q33 -15 66 -33q33 -18 59.5 -42.5q26.5 -24.5 43 -58.5q16.5 -34 16.5 -81q0 -45 -16 -82.5q-16 -37.5 -48 -64.5q-32 -27 -79 -42.5q-47 -15.5 -109 -15.5zt0 0zM106 870h100l59 -80l59 80h100l-104 -120l-110 0z" />
<glyph unicode="&#350;" horiz-adv-x="530" d="M223 -10q-29 0 -70 6q-41 6 -90 23l0 92q16 -7 37 -13q21 -6 43 -10.5q22 -4.5 43 -7q21 -2.5 39 -2.5q34 0 61 9.5q27 9.5 45.5 25q18.5 15.5 28 36q9.5 20.5 9.5 42.5q0 24 -11.5 43q-11.5 19 -30 34.5q-18.5 15.5 -43 28.5q-24.5 13 -51.5 26q-32 15 -63.5 32.5q-31.5 17.5 -57 40.5q-25.5 23 -41.5 53q-16 30 -16 72q0 41 15 76q15 35 44.5 60q29.5 25 73.5 39q44 14 102 14q57 0 96 -9.5q39 -9.5 56 -15.5l0 -92q-42 18 -84 23.5q-42 5.5 -68 5.5q-70 0 -99.5 -26q-29.5 -26 -29.5 -62q0 -23 10.5 -40.5q10.5 -17.5 28.5 -32q18 -14.5 41 -27q23 -12.5 49 -24.5q33 -15 66 -33q33 -18 59.5 -42.5q26.5 -24.5 43 -58.5q16.5 -34 16.5 -81q0 -78 -48 -132q-48 -54 -142 -68l-4 -28q47 -2 67.5 -24q20.5 -22 20.5 -60q0 -47 -32.5 -76q-32.5 -29 -82.5 -29q-20 0 -38.5 6q-18.5 6 -39.5 22l23 46q11 -7 23 -11q12 -4 25 -4q19 0 34 9.5q15 9.5 15 31.5q0 22 -14.5 31.5q-14.5 9.5 -37.5 9.5q-7 0 -15 -0.5q-8 -0.5 -15 -2.5l10 74l-1 0z" />
<glyph unicode="&#348;" horiz-adv-x="530" d="M223 -10q-29 0 -70 6q-41 6 -90 23l0 92q16 -7 37 -13q21 -6 43 -10.5q22 -4.5 43 -7q21 -2.5 39 -2.5q34 0 61 9.5q27 9.5 45.5 25q18.5 15.5 28 36q9.5 20.5 9.5 42.5q0 24 -11.5 43q-11.5 19 -30 34.5q-18.5 15.5 -43 28.5q-24.5 13 -51.5 26q-32 15 -63.5 32.5q-31.5 17.5 -57 40.5q-25.5 23 -41.5 53q-16 30 -16 72q0 41 15 76q15 35 44.5 60q29.5 25 73.5 39q44 14 102 14q57 0 96 -9.5q39 -9.5 56 -15.5l0 -92q-42 18 -84 23.5q-42 5.5 -68 5.5q-70 0 -99.5 -26q-29.5 -26 -29.5 -62q0 -23 10.5 -40.5q10.5 -17.5 28.5 -32q18 -14.5 41 -27q23 -12.5 49 -24.5q33 -15 66 -33q33 -18 59.5 -42.5q26.5 -24.5 43 -58.5q16.5 -34 16.5 -81q0 -45 -16 -82.5q-16 -37.5 -48 -64.5q-32 -27 -79 -42.5q-47 -15.5 -109 -15.5zt0 0zM210 870h110l104 -120h-96l-63 73l-63 -73l-96 0z" />
<glyph unicode="&#7838;" horiz-adv-x="670" d="M383 -10q-33 0 -62.5 4q-29.5 4 -53.5 9l0 88q32 -8 59.5 -10.5q27.5 -2.5 44.5 -2.5q79 0 117.5 37q38.5 37 38.5 102q0 40 -13 66q-13 26 -38 41q-25 15 -60.5 20.5q-35.5 5.5 -80.5 5.5h-14v49l140 195q-29 15 -58.5 20.5q-29.5 5.5 -61.5 5.5q-80 0 -116 -33.5q-36 -33.5 -36 -106.5v-480h-98v480q0 112 63.5 170q63.5 58 183.5 58q26 0 57 -3.5q31 -3.5 64.5 -12.5q33.5 -9 68 -25.5q34.5 -16.5 67.5 -43.5l-153 -206q97 -17 144 -69q47 -52 47 -136q0 -49 -18 -89.5q-18 -40.5 -50.5 -70q-32.5 -29.5 -78.5 -46t-103 -16.5z" />
<glyph unicode="&#399;" horiz-adv-x="720" d="M49 375h515q-3 52 -18.5 97.5q-15.5 45.5 -43.5 78.5q-28 33 -68.5 52q-40.5 19 -94.5 19q-27 0 -55 -5q-28 -5 -53.5 -13q-25.5 -8 -48.5 -18q-23 -10 -41 -20l0 99q56 23 103 34q47 11 103 11q78 0 138.5 -27q60.5 -27 102 -75q41.5 -48 62.5 -114q21 -66 21 -144q0 -79 -21.5 -145q-21.5 -66 -61.5 -114q-40 -48 -97.5 -74.5q-57.5 -26.5 -130.5 -26.5q-74 0 -131.5 27.5q-57.5 27.5 -97.5 75.5q-40 48 -61 112q-21 64 -21 137zM360 78q42 0 76 16q34 16 59.5 44q25.5 28 41.5 66q16 38 23 83l-401 0q7 -45 23 -83.5q16 -38.5 41.5 -66q25.5 -27.5 60 -43.5t76.5 -16z" />
<glyph unicode="&#84;" horiz-adv-x="560" d="M231 612h-214v88h526v-88h-214v-612l-98 0z" />
<glyph unicode="&#356;" horiz-adv-x="560" d="M231 612h-214v88h526v-88h-214v-612h-98zM121 870h100l59 -80l59 80h100l-104 -120l-110 0z" />
<glyph unicode="&#85;" horiz-adv-x="720" d="M360 -10q-128 0 -198.5 74.5q-70.5 74.5 -70.5 223.5v412h98v-402q0 -120 44 -170q44 -50 127 -50q83 0 127 50q44 50 44 170v402h98v-412q0 -149 -70.5 -223.5t-198.5 -74.5z" />
<glyph unicode="&#218;" horiz-adv-x="720" d="M360 -10q-128 0 -198.5 74.5q-70.5 74.5 -70.5 223.5v412h98v-402q0 -120 44 -170q44 -50 127 -50q83 0 127 50q44 50 44 170v402h98v-412q0 -149 -70.5 -223.5q-70.5 -74.5 -198.5 -74.5zt0 0zM387 875h120l-111 -125l-80 0z" />
<glyph unicode="&#364;" horiz-adv-x="720" d="M360 -10q-128 0 -198.5 74.5q-70.5 74.5 -70.5 223.5v412h98v-402q0 -120 44 -170q44 -50 127 -50q83 0 127 50q44 50 44 170v402h98v-412q0 -149 -70.5 -223.5q-70.5 -74.5 -198.5 -74.5zt0 0zM360 744q-29 0 -56 7.5q-27 7.5 -49.5 23q-22.5 15.5 -39.5 39q-17 23.5 -26 56.5l70 0q3 -9 9 -18.5q6 -9.5 17.5 -18q11.5 -8.5 29.5 -14q18 -5.5 45 -5.5q27 0 45 5.5q18 5.5 29.5 14q11.5 8.5 17.5 18q6 9.5 9 18.5l70 0q-9 -33 -26 -56.5q-17 -23.5 -39.5 -39q-22.5 -15.5 -50 -23t-55.5 -7.5z" />
<glyph unicode="&#219;" horiz-adv-x="720" d="M360 -10q-128 0 -198.5 74.5q-70.5 74.5 -70.5 223.5v412h98v-402q0 -120 44 -170q44 -50 127 -50q83 0 127 50q44 50 44 170v402h98v-412q0 -149 -70.5 -223.5q-70.5 -74.5 -198.5 -74.5zt0 0zM305 870h110l104 -120h-96l-63 73l-63 -73l-96 0z" />
<glyph unicode="&#220;" horiz-adv-x="720" d="M360 -10q-128 0 -198.5 74.5q-70.5 74.5 -70.5 223.5v412h98v-402q0 -120 44 -170q44 -50 127 -50q83 0 127 50q44 50 44 170v402h98v-412q0 -149 -70.5 -223.5q-70.5 -74.5 -198.5 -74.5zt0 0zM200 850h106v-100h-106zM414 850h106v-100l-106 0z" />
<glyph unicode="&#217;" horiz-adv-x="720" d="M360 -10q-128 0 -198.5 74.5q-70.5 74.5 -70.5 223.5v412h98v-402q0 -120 44 -170q44 -50 127 -50q83 0 127 50q44 50 44 170v402h98v-412q0 -149 -70.5 -223.5q-70.5 -74.5 -198.5 -74.5zt0 0zM215 874h120l66 -124l-80 0z" />
<glyph unicode="&#368;" horiz-adv-x="720" d="M360 -10q-128 0 -198.5 74.5q-70.5 74.5 -70.5 223.5v412h98v-402q0 -120 44 -170q44 -50 127 -50q83 0 127 50q44 50 44 170v402h98v-412q0 -149 -70.5 -223.5q-70.5 -74.5 -198.5 -74.5zt0 0zM493 880h110l-128 -130h-70zM312 880h110l-128 -130l-70 0z" />
<glyph unicode="&#362;" horiz-adv-x="720" d="M360 -10q-128 0 -198.5 74.5q-70.5 74.5 -70.5 223.5v412h98v-402q0 -120 44 -170q44 -50 127 -50q83 0 127 50q44 50 44 170v402h98v-412q0 -149 -70.5 -223.5q-70.5 -74.5 -198.5 -74.5zt0 0zM210 840h300v-70l-300 0z" />
<glyph unicode="&#370;" horiz-adv-x="720" d="M399 -222q-57 0 -81 23.5q-24 23.5 -24 60.5q0 39 25.5 71q25.5 32 70.5 60q-8 -1 -15 -1q-7 0 -15 0q-128 0 -198.5 74.5q-70.5 74.5 -70.5 223.5v410h98v-400q0 -120 44 -170q44 -50 127 -50q83 0 127 50q44 50 44 170v400h98v-410q0 -68 -13.5 -114q-13.5 -46 -34.5 -78q-21 -32 -48 -54q-27 -22 -54 -42q-20 -15 -38 -29q-18 -14 -32 -28.5q-14 -14.5 -22.5 -31q-8.5 -16.5 -8.5 -35.5q0 -20 10.5 -32.5q10.5 -12.5 30.5 -12.5q10 0 18.5 1q8.5 1 14.5 3q7 2 13 5l14 -49q-14 -6 -35.5 -10.5t-44.5 -4.5z" />
<glyph unicode="&#366;" horiz-adv-x="720" d="M360 -10q-128 0 -198.5 74.5q-70.5 74.5 -70.5 223.5v412h98v-402q0 -120 44 -170q44 -50 127 -50q83 0 127 50q44 50 44 170v402h98v-412q0 -149 -70.5 -223.5q-70.5 -74.5 -198.5 -74.5zt0 0zM360 714q-21 0 -39.5 8q-18.5 8 -32.5 22q-14 14 -22 32.5q-8 18.5 -8 39.5q0 21 8 39.5q8 18.5 22 32.5q14 14 32.5 22q18.5 8 39.5 8q21 0 39.5 -8q18.5 -8 32.5 -22q14 -14 22 -32.5q8 -18.5 8 -39.5q0 -21 -8 -39.5q-8 -18.5 -22 -32.5q-14 -14 -32.5 -22q-18.5 -8 -39.5 -8zt0 0zM360 754q26 0 44 18q18 18 18 44q0 26 -18 44q-18 18 -44 18q-26 0 -44 -18q-18 -18 -18 -44q0 -26 18 -44t44 -18z" />
<glyph unicode="&#86;" horiz-adv-x="660" d="M12 700h109l209 -612h3l210 612h105l-256 -700l-125 0z" />
<glyph unicode="&#87;" horiz-adv-x="1000" d="M2 700h110l167 -600h2l149 600h142l151 -600h2l167 600h106l-215 -700h-129l-152 612h-2l-153 -612l-134 0z" />
<glyph unicode="&#88;" horiz-adv-x="690" d="M339 296l-199 -296h-120l257 364l-234 336h120l186 -269l184 269h114l-235 -334l258 -366l-126 0z" />
<glyph unicode="&#89;" horiz-adv-x="650" d="M129 700l196 -330h2l194 330h117l-263 -431v-269h-98v269l-265 431z" />
<glyph unicode="&#221;" horiz-adv-x="650" d="M129 700l196 -330h2l194 330h117l-263 -431v-269h-98v269l-265 431zM352 875h120l-111 -125l-80 0z" />
<glyph unicode="&#376;" horiz-adv-x="650" d="M129 700l196 -330h2l194 330h117l-263 -431v-269h-98v269l-265 431zM165 850h106v-100h-106zM379 850h106v-100l-106 0z" />
<glyph unicode="&#90;" horiz-adv-x="580" d="M58 90l344 522h-332v88h446v-88l-347 -524h353v-88l-464 0z" />
<glyph unicode="&#377;" horiz-adv-x="580" d="M58 90l344 522h-332v88h446v-88l-347 -524h353v-88h-464zM317 875h120l-111 -125l-80 0z" />
<glyph unicode="&#381;" horiz-adv-x="580" d="M58 90l344 522h-332v88h446v-88l-347 -524h353v-88h-464zM131 870h100l59 -80l59 80h100l-104 -120l-110 0z" />
<glyph unicode="&#379;" horiz-adv-x="580" d="M58 90l344 522h-332v88h446v-88l-347 -524h353v-88h-464zM234 854h112v-102l-112 0z" />
<glyph unicode="&#290;" horiz-adv-x="715" d="M414 -10q-87 0 -155 25q-68 25 -114.5 72q-46.5 47 -71 113.5q-24.5 66.5 -24.5 149.5q0 82 25.5 148.5q25.5 66.5 73.5 113.5q48 47 116.5 72.5q68.5 25.5 154.5 25.5q70 0 123 -13.5q53 -13.5 77 -26.5l0 -96q-24 16 -77 32q-53 16 -123 16q-60 0 -109 -19q-49 -19 -83.5 -54q-34.5 -35 -53 -85.5q-18.5 -50.5 -18.5 -113.5q0 -128 68 -200q68 -72 200 -72q28 0 57.5 2q29.5 2 55.5 7l0 206h-162v88h260v-362q-38 -12 -91.5 -20.5q-53.5 -8.5 -128.5 -8.5zt0 0zM312 -50h107l-70 -200l-77 0z" />
<glyph unicode="&#310;" horiz-adv-x="645" d="M93 700h98v-288h103l202 288h121l-240 -331l263 -369h-122l-225 324h-102v-324h-98zM274 -50h107l-70 -200l-77 0z" />
<glyph unicode="&#315;" horiz-adv-x="520" d="M93 700h98v-612h313v-88h-411zM214 -50h107l-70 -200l-77 0z" />
<glyph unicode="&#325;" horiz-adv-x="730" d="M93 700h130l316 -570h2l-2 89v481h98v-700h-130l-316 570h-2l2 -80v-490h-98zM326 -50h107l-70 -200l-77 0z" />
<glyph unicode="&#342;" horiz-adv-x="625" d="M361 267q-12 -2 -24.5 -2q-12.5 0 -25.5 0h-120v-265h-98v700h218q128 0 189 -57q61 -57 61 -163q0 -70 -27.5 -116q-27.5 -46 -76.5 -71l150 -293h-121zM311 348q75 0 109.5 33q34.5 33 34.5 99q0 66 -34.5 99q-34.5 33 -109.5 33h-120v-264zM267 -50h107l-70 -200l-77 0z" />
<glyph unicode="&#354;" horiz-adv-x="560" d="M231 612h-214v88h526v-88h-214v-612h-19l-4 -33q47 -2 67.5 -24q20.5 -22 20.5 -60q0 -47 -32.5 -76q-32.5 -29 -82.5 -29q-20 0 -38.5 6q-18.5 6 -39.5 22l23 46q11 -7 23 -11q12 -4 25 -4q19 0 34 9.5q15 9.5 15 31.5q0 22 -14.5 31.5q-14.5 9.5 -37.5 9.5q-7 0 -15 -0.5q-8 -0.5 -15 -2.5l11 84l-19 0z" />
<glyph unicode="&#463;" horiz-adv-x="310" d="M106 700h98v-700h-98zM16 870h90l49 -70l49 70h90l-84 -120l-110 0z" />
<glyph unicode="&#536;" horiz-adv-x="530" d="M223 -10q-29 0 -70 6q-41 6 -90 23l0 92q16 -7 37 -13q21 -6 43 -10.5q22 -4.5 43 -7q21 -2.5 39 -2.5q34 0 61 9.5q27 9.5 45.5 25q18.5 15.5 28 36q9.5 20.5 9.5 42.5q0 24 -11.5 43q-11.5 19 -30 34.5q-18.5 15.5 -43 28.5q-24.5 13 -51.5 26q-32 15 -63.5 32.5q-31.5 17.5 -57 40.5q-25.5 23 -41.5 53q-16 30 -16 72q0 41 15 76q15 35 44.5 60q29.5 25 73.5 39q44 14 102 14q57 0 96 -9.5q39 -9.5 56 -15.5l0 -92q-42 18 -84 23.5q-42 5.5 -68 5.5q-70 0 -99.5 -26q-29.5 -26 -29.5 -62q0 -23 10.5 -40.5q10.5 -17.5 28.5 -32q18 -14.5 41 -27q23 -12.5 49 -24.5q33 -15 66 -33q33 -18 59.5 -42.5q26.5 -24.5 43 -58.5q16.5 -34 16.5 -81q0 -45 -16 -82.5q-16 -37.5 -48 -64.5q-32 -27 -79 -42.5q-47 -15.5 -109 -15.5zt0 0zM209 -50h107l-70 -200l-77 0z" />
<glyph unicode="&#538;" horiz-adv-x="560" d="M231 612h-214v88h526v-88h-214v-612h-98zM234 -50h107l-70 -200l-77 0z" />
<glyph unicode="&#97;" horiz-adv-x="558" d="M214 -8q-80 0 -127 40.5q-47 40.5 -47 112.5q0 84 64.5 128.5q64.5 44.5 198.5 44.5h94v17q0 55 -38 80q-38 25 -101 25q-41 0 -83 -9.5q-42 -9.5 -88 -34.5l0 88q38 17 87 25.5q49 8.5 96 8.5q105 0 163 -47.5q58 -47.5 58 -153.5v-317h-96v78h-2q-32 -47 -81.5 -66.5q-49.5 -19.5 -97.5 -19.5zt0 0zM237 72q35 0 64.5 11q29.5 11 50.5 30.5q21 19.5 33 45.5q12 26 12 55v32h-90q-47 0 -78.5 -7q-31.5 -7 -51.5 -20q-20 -13 -28.5 -30q-8.5 -17 -8.5 -38q0 -38 26 -58.5t71 -20.5z" />
<glyph unicode="&#225;" horiz-adv-x="558" d="M214 -8q-80 0 -127 40.5q-47 40.5 -47 112.5q0 84 64.5 128.5q64.5 44.5 198.5 44.5h94v17q0 55 -38 80q-38 25 -101 25q-41 0 -83 -9.5q-42 -9.5 -88 -34.5l0 88q38 17 87 25.5q49 8.5 96 8.5q105 0 163 -47.5q58 -47.5 58 -153.5v-317h-96v78h-2q-32 -47 -81.5 -66.5q-49.5 -19.5 -97.5 -19.5zt0 0zM237 72q35 0 64.5 11q29.5 11 50.5 30.5q21 19.5 33 45.5q12 26 12 55v32h-90q-47 0 -78.5 -7q-31.5 -7 -51.5 -20q-20 -13 -28.5 -30q-8.5 -17 -8.5 -38q0 -38 26 -58.5q26 -20.5 71 -20.5zt0 0zM317 740h120l-118 -130l-80 0z" />
<glyph unicode="&#259;" horiz-adv-x="558" d="M214 -8q-80 0 -127 40.5q-47 40.5 -47 112.5q0 84 64.5 128.5q64.5 44.5 198.5 44.5h94v17q0 55 -38 80q-38 25 -101 25q-41 0 -83 -9.5q-42 -9.5 -88 -34.5l0 88q38 17 87 25.5q49 8.5 96 8.5q105 0 163 -47.5q58 -47.5 58 -153.5v-317h-96v78h-2q-32 -47 -81.5 -66.5q-49.5 -19.5 -97.5 -19.5zt0 0zM237 72q35 0 64.5 11q29.5 11 50.5 30.5q21 19.5 33 45.5q12 26 12 55v32h-90q-47 0 -78.5 -7q-31.5 -7 -51.5 -20q-20 -13 -28.5 -30q-8.5 -17 -8.5 -38q0 -38 26 -58.5q26 -20.5 71 -20.5zt0 0zM281 598q-64 0 -106.5 38q-42.5 38 -47.5 104l60 0q3 -12 9 -25q6 -13 17 -23.5q11 -10.5 27.5 -17q16.5 -6.5 40.5 -6.5q24 0 40.5 6.5q16.5 6.5 27.5 17q11 10.5 17 23.5q6 13 9 25l60 0q-5 -66 -47.5 -104t-106.5 -38z" />
<glyph unicode="&#226;" horiz-adv-x="558" d="M214 -8q-80 0 -127 40.5q-47 40.5 -47 112.5q0 84 64.5 128.5q64.5 44.5 198.5 44.5h94v17q0 55 -38 80q-38 25 -101 25q-41 0 -83 -9.5q-42 -9.5 -88 -34.5l0 88q38 17 87 25.5q49 8.5 96 8.5q105 0 163 -47.5q58 -47.5 58 -153.5v-317h-96v78h-2q-32 -47 -81.5 -66.5q-49.5 -19.5 -97.5 -19.5zt0 0zM237 72q35 0 64.5 11q29.5 11 50.5 30.5q21 19.5 33 45.5q12 26 12 55v32h-90q-47 0 -78.5 -7q-31.5 -7 -51.5 -20q-20 -13 -28.5 -30q-8.5 -17 -8.5 -38q0 -38 26 -58.5q26 -20.5 71 -20.5zt0 0zM236 740h90l100 -130h-76l-69 84l-69 -84l-76 0z" />
<glyph unicode="&#228;" horiz-adv-x="558" d="M214 -8q-80 0 -127 40.5q-47 40.5 -47 112.5q0 84 64.5 128.5q64.5 44.5 198.5 44.5h94v17q0 55 -38 80q-38 25 -101 25q-41 0 -83 -9.5q-42 -9.5 -88 -34.5l0 88q38 17 87 25.5q49 8.5 96 8.5q105 0 163 -47.5q58 -47.5 58 -153.5v-317h-96v78h-2q-32 -47 -81.5 -66.5q-49.5 -19.5 -97.5 -19.5zt0 0zM237 72q35 0 64.5 11q29.5 11 50.5 30.5q21 19.5 33 45.5q12 26 12 55v32h-90q-47 0 -78.5 -7q-31.5 -7 -51.5 -20q-20 -13 -28.5 -30q-8.5 -17 -8.5 -38q0 -38 26 -58.5q26 -20.5 71 -20.5zt0 0zM327 720h94v-100h-94zM141 720h94v-100l-94 0z" />
<glyph unicode="&#224;" horiz-adv-x="558" d="M214 -8q-80 0 -127 40.5q-47 40.5 -47 112.5q0 84 64.5 128.5q64.5 44.5 198.5 44.5h94v17q0 55 -38 80q-38 25 -101 25q-41 0 -83 -9.5q-42 -9.5 -88 -34.5l0 88q38 17 87 25.5q49 8.5 96 8.5q105 0 163 -47.5q58 -47.5 58 -153.5v-317h-96v78h-2q-32 -47 -81.5 -66.5q-49.5 -19.5 -97.5 -19.5zt0 0zM237 72q35 0 64.5 11q29.5 11 50.5 30.5q21 19.5 33 45.5q12 26 12 55v32h-90q-47 0 -78.5 -7q-31.5 -7 -51.5 -20q-20 -13 -28.5 -30q-8.5 -17 -8.5 -38q0 -38 26 -58.5q26 -20.5 71 -20.5zt0 0zM124 740h120l78 -130l-80 0z" />
<glyph unicode="&#257;" horiz-adv-x="558" d="M214 -8q-80 0 -127 40.5q-47 40.5 -47 112.5q0 84 64.5 128.5q64.5 44.5 198.5 44.5h94v17q0 55 -38 80q-38 25 -101 25q-41 0 -83 -9.5q-42 -9.5 -88 -34.5l0 88q38 17 87 25.5q49 8.5 96 8.5q105 0 163 -47.5q58 -47.5 58 -153.5v-317h-96v78h-2q-32 -47 -81.5 -66.5q-49.5 -19.5 -97.5 -19.5zt0 0zM237 72q35 0 64.5 11q29.5 11 50.5 30.5q21 19.5 33 45.5q12 26 12 55v32h-90q-47 0 -78.5 -7q-31.5 -7 -51.5 -20q-20 -13 -28.5 -30q-8.5 -17 -8.5 -38q0 -38 26 -58.5q26 -20.5 71 -20.5zt0 0zM131 725h300v-70l-300 0z" />
<glyph unicode="&#261;" horiz-adv-x="558" d="M406 -222q-57 0 -81 24q-24 24 -24 64q0 38 28.5 71.5q28.5 33.5 79.5 62.5l-14 0v78h-2q-32 -47 -81.5 -66.5q-49.5 -19.5 -97.5 -19.5q-80 0 -127 40.5q-47 40.5 -47 112.5q0 84 64.5 128.5q64.5 44.5 198.5 44.5h94v17q0 55 -38 80q-38 25 -101 25q-41 0 -83 -9.5q-42 -9.5 -88 -34.5l0 88q38 17 87 25.5q49 8.5 96 8.5q105 0 163 -47.5q58 -47.5 58 -153.5v-317q-32 -23 -52.5 -40.5q-20.5 -17.5 -32.5 -32q-12 -14.5 -16.5 -26q-4.5 -11.5 -4.5 -23.5q0 -20 10.5 -32.5q10.5 -12.5 30.5 -12.5q10 0 18.5 1q8.5 1 14.5 3q7 2 13 5l14 -49q-14 -6 -35.5 -10.5q-21.5 -4.5 -44.5 -4.5zt0 0zM237 72q35 0 64.5 11q29.5 11 50.5 30.5q21 19.5 33 45.5q12 26 12 55v32h-90q-47 0 -78.5 -7q-31.5 -7 -51.5 -20q-20 -13 -28.5 -30q-8.5 -17 -8.5 -38q0 -38 26 -58.5t71 -20.5z" />
<glyph unicode="&#229;" horiz-adv-x="558" d="M214 -8q-80 0 -127 40.5q-47 40.5 -47 112.5q0 84 64.5 128.5q64.5 44.5 198.5 44.5h94v17q0 55 -38 80q-38 25 -101 25q-41 0 -83 -9.5q-42 -9.5 -88 -34.5l0 88q38 17 87 25.5q49 8.5 96 8.5q105 0 163 -47.5q58 -47.5 58 -153.5v-317h-96v78h-2q-32 -47 -81.5 -66.5q-49.5 -19.5 -97.5 -19.5zt0 0zM237 72q35 0 64.5 11q29.5 11 50.5 30.5q21 19.5 33 45.5q12 26 12 55v32h-90q-47 0 -78.5 -7q-31.5 -7 -51.5 -20q-20 -13 -28.5 -30q-8.5 -17 -8.5 -38q0 -38 26 -58.5q26 -20.5 71 -20.5zt0 0zM281 576q-21 0 -39.5 8q-18.5 8 -32.5 22q-14 14 -22 32.5q-8 18.5 -8 39.5q0 21 8 39.5q8 18.5 22 32.5q14 14 32.5 22q18.5 8 39.5 8q21 0 39.5 -8q18.5 -8 32.5 -22q14 -14 22 -32.5q8 -18.5 8 -39.5q0 -21 -8 -39.5q-8 -18.5 -22 -32.5q-14 -14 -32.5 -22q-18.5 -8 -39.5 -8zt0 0zM281 616q26 0 44 18q18 18 18 44q0 26 -18 44q-18 18 -44 18q-26 0 -44 -18q-18 -18 -18 -44q0 -26 18 -44t44 -18z" />
<glyph unicode="&#227;" horiz-adv-x="558" d="M214 -8q-80 0 -127 40.5q-47 40.5 -47 112.5q0 84 64.5 128.5q64.5 44.5 198.5 44.5h94v17q0 55 -38 80q-38 25 -101 25q-41 0 -83 -9.5q-42 -9.5 -88 -34.5l0 88q38 17 87 25.5q49 8.5 96 8.5q105 0 163 -47.5q58 -47.5 58 -153.5v-317h-96v78h-2q-32 -47 -81.5 -66.5q-49.5 -19.5 -97.5 -19.5zt0 0zM237 72q35 0 64.5 11q29.5 11 50.5 30.5q21 19.5 33 45.5q12 26 12 55v32h-90q-47 0 -78.5 -7q-31.5 -7 -51.5 -20q-20 -13 -28.5 -30q-8.5 -17 -8.5 -38q0 -38 26 -58.5q26 -20.5 71 -20.5zt0 0zM120 616q1 21 7.5 41.5q6.5 20.5 17.5 36q11 15.5 27.5 25q16.5 9.5 38.5 9.5q7 0 13.5 -1q6.5 -1 14.5 -4q8 -3 20 -8q12 -5 30 -12q13 -5 29.5 -13q16.5 -8 36.5 -8q35 0 44 46l44 0q-3 -22 -9.5 -42.5q-6.5 -20.5 -17 -36q-10.5 -15.5 -26.5 -24.5q-16 -9 -38 -9q-15 0 -30 5.5q-15 5.5 -49 19.5q-13 5 -29.5 13q-16.5 8 -36.5 8q-35 0 -44 -46l-43 0z" />
<glyph unicode="&#230;" horiz-adv-x="885" d="M277 518q61 0 108 -18q47 -18 75 -56l2 0q63 74 161 74q96 0 153 -63.5q57 -63.5 57 -190.5v-26h-352q8 -81 53 -124.5q45 -43.5 117 -43.5q41 0 80.5 11.5q39.5 11.5 66.5 28.5l0 -92q-23 -8 -59 -17q-36 -9 -88 -9q-77 0 -131 31q-54 31 -88 89l-3 0q-34 -59 -90.5 -89.5q-56.5 -30.5 -120.5 -30.5q-81 0 -129.5 40.5q-48.5 40.5 -48.5 112.5q0 81 66 122q66 41 204 41h89v27q0 55 -36 80q-36 25 -98 25q-41 0 -83.5 -9.5q-42.5 -9.5 -88.5 -34.5l0 88q38 17 87 25.5q49 8.5 97 8.5zt0 0zM244 72q34 0 62.5 11q28.5 11 49 30.5q20.5 19.5 32 45.5q11.5 26 11.5 55v24h-85q-48 0 -81.5 -6q-33.5 -6 -54 -17.5q-20.5 -11.5 -29.5 -27.5q-9 -16 -9 -36q0 -37 27.5 -58q27.5 -21 76.5 -21zt0 0zM615 442q-55 0 -89.5 -35.5q-34.5 -35.5 -42.5 -98.5l250 0q0 64 -33.5 99t-84.5 35z" />
<glyph unicode="&#98;" horiz-adv-x="630" d="M344 -8q-58 0 -98.5 20q-40.5 20 -71.5 59l-2 0l-7 -71h-82v760h94v-318h2q28 31 68.5 53.5q40.5 22.5 98.5 22.5q52 0 95.5 -19.5q43.5 -19.5 74.5 -54q31 -34.5 48 -81.5q17 -47 17 -102q0 -58 -16.5 -107.5q-16.5 -49.5 -47.5 -85.5q-31 -36 -75 -56q-44 -20 -98 -20zt0 0zM328 68q33 0 61 14q28 14 48.5 39.5q20.5 25.5 32 60q11.5 34.5 11.5 75.5q0 40 -11.5 74q-11.5 34 -32 58.5q-20.5 24.5 -48 38.5q-27.5 14 -59.5 14q-34 0 -62 -14q-28 -14 -48.5 -39q-20.5 -25 -31.5 -59.5q-11 -34.5 -11 -75.5q0 -41 11 -75q11 -34 31 -58.5q20 -24.5 48 -38.5t61 -14z" />
<glyph unicode="&#99;" horiz-adv-x="485" d="M304 -8q-59 0 -106.5 19q-47.5 19 -80.5 53.5q-33 34.5 -50.5 83q-17.5 48.5 -17.5 107.5q0 59 18 107.5q18 48.5 51.5 83q33.5 34.5 80.5 53.5q47 19 106 19q30 0 53.5 -3q23.5 -3 40.5 -7q19 -4 33 -10l0 -81q-15 7 -33 12q-16 5 -37 9q-21 4 -47 4q-80 0 -123 -48.5q-43 -48.5 -43 -138.5q0 -90 43 -138.5q43 -48.5 122 -48.5q26 0 47.5 4q21.5 4 37.5 9q18 5 33 13l0 -82q-15 -6 -34 -10q-17 -4 -41 -7t-53 -3z" />
<glyph unicode="&#263;" horiz-adv-x="485" d="M304 -8q-59 0 -106.5 19q-47.5 19 -80.5 53.5q-33 34.5 -50.5 83q-17.5 48.5 -17.5 107.5q0 59 18 107.5q18 48.5 51.5 83q33.5 34.5 80.5 53.5q47 19 106 19q30 0 53.5 -3q23.5 -3 40.5 -7q19 -4 33 -10l0 -81q-15 7 -33 12q-16 5 -37 9q-21 4 -47 4q-80 0 -123 -48.5q-43 -48.5 -43 -138.5q0 -90 43 -138.5q43 -48.5 122 -48.5q26 0 47.5 4q21.5 4 37.5 9q18 5 33 13l0 -82q-15 -6 -34 -10q-17 -4 -41 -7q-24 -3 -53 -3zt0 0zM315 740h120l-118 -130l-80 0z" />
<glyph unicode="&#269;" horiz-adv-x="485" d="M304 -8q-59 0 -106.5 19q-47.5 19 -80.5 53.5q-33 34.5 -50.5 83q-17.5 48.5 -17.5 107.5q0 59 18 107.5q18 48.5 51.5 83q33.5 34.5 80.5 53.5q47 19 106 19q30 0 53.5 -3q23.5 -3 40.5 -7q19 -4 33 -10l0 -81q-15 7 -33 12q-16 5 -37 9q-21 4 -47 4q-80 0 -123 -48.5q-43 -48.5 -43 -138.5q0 -90 43 -138.5q43 -48.5 122 -48.5q26 0 47.5 4q21.5 4 37.5 9q18 5 33 13l0 -82q-15 -6 -34 -10q-17 -4 -41 -7q-24 -3 -53 -3zt0 0zM134 740h76l69 -84l69 84h76l-100 -130l-90 0z" />
<glyph unicode="&#231;" horiz-adv-x="485" d="M256 -194q-18 0 -34 5.5q-16 5.5 -35 19.5l21 40q21 -13 42 -13q17 0 30 8q13 8 13 28q0 19 -13 27.5q-13 8.5 -33 8.5q-14 0 -26 -3l10 73q-87 21 -134.5 88.5q-47.5 67.5 -47.5 166.5q0 59 18 107.5q18 48.5 51.5 83q33.5 34.5 80.5 53.5q47 19 106 19q30 0 53.5 -3q23.5 -3 40.5 -7q19 -4 33 -10l0 -81q-15 7 -33 12q-16 5 -37 9q-21 4 -47 4q-80 0 -123 -48.5q-43 -48.5 -43 -138.5q0 -90 43 -138.5q43 -48.5 122 -48.5q26 0 47.5 4q21.5 4 37.5 9q18 5 33 13l0 -82q-15 -6 -34 -10q-17 -4 -41 -7q-24 -3 -53 -3q-5 0 -10.5 0.5q-5.5 0.5 -10.5 0.5l-3 -21q42 -2 59.5 -21q17.5 -19 17.5 -53q0 -41 -28.5 -66.5t-72.5 -25.5z" />
<glyph unicode="&#265;" horiz-adv-x="485" d="M304 -8q-59 0 -106.5 19q-47.5 19 -80.5 53.5q-33 34.5 -50.5 83q-17.5 48.5 -17.5 107.5q0 59 18 107.5q18 48.5 51.5 83q33.5 34.5 80.5 53.5q47 19 106 19q30 0 53.5 -3q23.5 -3 40.5 -7q19 -4 33 -10l0 -81q-15 7 -33 12q-16 5 -37 9q-21 4 -47 4q-80 0 -123 -48.5q-43 -48.5 -43 -138.5q0 -90 43 -138.5q43 -48.5 122 -48.5q26 0 47.5 4q21.5 4 37.5 9q18 5 33 13l0 -82q-15 -6 -34 -10q-17 -4 -41 -7q-24 -3 -53 -3zt0 0zM234 740h90l100 -130h-76l-69 84l-69 -84l-76 0z" />
<glyph unicode="&#267;" horiz-adv-x="485" d="M304 -8q-59 0 -106.5 19q-47.5 19 -80.5 53.5q-33 34.5 -50.5 83q-17.5 48.5 -17.5 107.5q0 59 18 107.5q18 48.5 51.5 83q33.5 34.5 80.5 53.5q47 19 106 19q30 0 53.5 -3q23.5 -3 40.5 -7q19 -4 33 -10l0 -81q-15 7 -33 12q-16 5 -37 9q-21 4 -47 4q-80 0 -123 -48.5q-43 -48.5 -43 -138.5q0 -90 43 -138.5q43 -48.5 122 -48.5q26 0 47.5 4q21.5 4 37.5 9q18 5 33 13l0 -82q-15 -6 -34 -10q-17 -4 -41 -7q-24 -3 -53 -3zt0 0zM226 720h106v-106l-106 0z" />
<glyph unicode="&#100;" horiz-adv-x="630" d="M286 -8q-54 0 -98 20q-44 20 -75 56q-31 36 -47.5 85.5q-16.5 49.5 -16.5 107.5q0 55 17 102q17 47 48 81.5q31 34.5 74.5 54q43.5 19.5 95.5 19.5q58 0 98.5 -22q40.5 -22 68.5 -54l2 0v318h94v-760h-90v72h-6q-29 -37 -68.5 -58.5q-39.5 -21.5 -96.5 -21.5zt0 0zM302 68q33 0 61 14q28 14 48 38.5q20 24.5 31 58.5q11 34 11 75q0 41 -11.5 75.5q-11.5 34.5 -31.5 59.5q-20 25 -48 39q-28 14 -62 14q-32 0 -60 -14q-28 -14 -48 -38.5q-20 -24.5 -31.5 -58.5q-11.5 -34 -11.5 -74q0 -41 11.5 -75.5q11.5 -34.5 32 -60q20.5 -25.5 48.5 -39.5t61 -14z" />
<glyph unicode="&#240;" horiz-adv-x="620" d="M306 -8q-57 0 -104.5 19.5q-47.5 19.5 -81.5 54.5q-34 35 -52.5 83.5q-18.5 48.5 -18.5 105.5q0 58 18.5 106.5q18.5 48.5 51 83q32.5 34.5 78 54q45.5 19.5 99.5 19.5q65 0 108 -25.5q43 -25.5 75 -79.5l4 0v14q0 27 -9 57.5q-9 30.5 -29.5 61q-20.5 30.5 -53.5 58.5q-33 28 -81 49l-32 -99l-53 16l33 103q-46 14 -107 22l16 80q32 -5 61 -11q29 -6 55 -14l32 100l52 -18l-32 -101q125 -52 180.5 -147.5q55.5 -95.5 55.5 -227.5q0 -80 -13.5 -146.5q-13.5 -66.5 -44 -115q-30.5 -48.5 -81.5 -75.5q-51 -27 -126 -27zt0 0zM305 68q35 0 63.5 14.5q28.5 14.5 49 39.5q20.5 25 32 59.5q11.5 34.5 11.5 73.5q0 37 -10.5 71q-10.5 34 -30.5 60q-20 26 -49 41q-29 15 -66 15q-37 0 -66 -15q-29 -15 -49 -41q-20 -26 -30.5 -60q-10.5 -34 -10.5 -71q0 -38 11 -72q11 -34 31.5 -59.5q20.5 -25.5 49 -40.5t64.5 -15z" />
<glyph unicode="&#271;" horiz-adv-x="640" d="M286 -8q-54 0 -98 20q-44 20 -75 56q-31 36 -47.5 85.5q-16.5 49.5 -16.5 107.5q0 55 17 102q17 47 48 81.5q31 34.5 74.5 54q43.5 19.5 95.5 19.5q58 0 98.5 -22q40.5 -22 68.5 -54l2 0v318h94v-760h-90v72h-6q-29 -37 -68.5 -58.5q-39.5 -21.5 -96.5 -21.5zt0 0zM302 68q33 0 61 14q28 14 48 38.5q20 24.5 31 58.5q11 34 11 75q0 41 -11.5 75.5q-11.5 34.5 -31.5 59.5q-20 25 -48 39q-28 14 -62 14q-32 0 -60 -14q-28 -14 -48 -38.5q-20 -24.5 -31.5 -58.5q-11.5 -34 -11.5 -74q0 -41 11.5 -75.5q11.5 -34.5 32 -60q20.5 -25.5 48.5 -39.5q28 -14 61 -14zt0 0zM627 762h100l-70 -168l-70 0z" />
<glyph unicode="&#273;" horiz-adv-x="630" d="M273 680h180v80h94v-80h89v-76h-89v-604h-90v72h-6q-29 -37 -68.5 -58.5q-39.5 -21.5 -96.5 -21.5q-54 0 -98 20q-44 20 -75 56q-31 36 -47.5 85.5q-16.5 49.5 -16.5 107.5q0 55 17 102q17 47 48 81.5q31 34.5 74.5 54q43.5 19.5 95.5 19.5q58 0 98.5 -22q40.5 -22 68.5 -54l2 0v162h-180zM302 68q33 0 61 14q28 14 48 38.5q20 24.5 31 58.5q11 34 11 75q0 41 -11.5 75.5q-11.5 34.5 -31.5 59.5q-20 25 -48 39q-28 14 -62 14q-32 0 -60 -14q-28 -14 -48 -38.5q-20 -24.5 -31.5 -58.5q-11.5 -34 -11.5 -74q0 -41 11.5 -75.5q11.5 -34.5 32 -60q20.5 -25.5 48.5 -39.5t61 -14z" />
<glyph unicode="&#101;" horiz-adv-x="575" d="M146 234q8 -79 54 -121.5q46 -42.5 124 -42.5q46 0 90.5 11.5q44.5 11.5 73.5 28.5l0 -92q-24 -8 -66 -17q-42 -9 -104 -9q-130 0 -199.5 72q-69.5 72 -69.5 200q0 58 18.5 105q18.5 47 51 80q32.5 33 76.5 51q44 18 95 18q109 0 171 -64q62 -64 62 -194v-26zM289 442q-59 0 -96.5 -37.5q-37.5 -37.5 -46.5 -100.5l277 0q0 66 -38 102t-96 36z" />
<glyph unicode="&#233;" horiz-adv-x="575" d="M146 234q8 -79 54 -121.5q46 -42.5 124 -42.5q46 0 90.5 11.5q44.5 11.5 73.5 28.5l0 -92q-24 -8 -66 -17q-42 -9 -104 -9q-130 0 -199.5 72q-69.5 72 -69.5 200q0 58 18.5 105q18.5 47 51 80q32.5 33 76.5 51q44 18 95 18q109 0 171 -64q62 -64 62 -194v-26zM289 442q-59 0 -96.5 -37.5q-37.5 -37.5 -46.5 -100.5l277 0q0 66 -38 102q-38 36 -96 36zt0 0zM325 740h120l-118 -130l-80 0z" />
<glyph unicode="&#283;" horiz-adv-x="575" d="M146 234q8 -79 54 -121.5q46 -42.5 124 -42.5q46 0 90.5 11.5q44.5 11.5 73.5 28.5l0 -92q-24 -8 -66 -17q-42 -9 -104 -9q-130 0 -199.5 72q-69.5 72 -69.5 200q0 58 18.5 105q18.5 47 51 80q32.5 33 76.5 51q44 18 95 18q109 0 171 -64q62 -64 62 -194v-26zM289 442q-59 0 -96.5 -37.5q-37.5 -37.5 -46.5 -100.5l277 0q0 66 -38 102q-38 36 -96 36zt0 0zM144 740h76l69 -84l69 84h76l-100 -130l-90 0z" />
<glyph unicode="&#234;" horiz-adv-x="575" d="M146 234q8 -79 54 -121.5q46 -42.5 124 -42.5q46 0 90.5 11.5q44.5 11.5 73.5 28.5l0 -92q-24 -8 -66 -17q-42 -9 -104 -9q-130 0 -199.5 72q-69.5 72 -69.5 200q0 58 18.5 105q18.5 47 51 80q32.5 33 76.5 51q44 18 95 18q109 0 171 -64q62 -64 62 -194v-26zM289 442q-59 0 -96.5 -37.5q-37.5 -37.5 -46.5 -100.5l277 0q0 66 -38 102q-38 36 -96 36zt0 0zM244 740h90l100 -130h-76l-69 84l-69 -84l-76 0z" />
<glyph unicode="&#235;" horiz-adv-x="575" d="M146 234q8 -79 54 -121.5q46 -42.5 124 -42.5q46 0 90.5 11.5q44.5 11.5 73.5 28.5l0 -92q-24 -8 -66 -17q-42 -9 -104 -9q-130 0 -199.5 72q-69.5 72 -69.5 200q0 58 18.5 105q18.5 47 51 80q32.5 33 76.5 51q44 18 95 18q109 0 171 -64q62 -64 62 -194v-26zM289 442q-59 0 -96.5 -37.5q-37.5 -37.5 -46.5 -100.5l277 0q0 66 -38 102q-38 36 -96 36zt0 0zM335 720h94v-100h-94zM149 720h94v-100l-94 0z" />
<glyph unicode="&#279;" horiz-adv-x="575" d="M146 234q8 -79 54 -121.5q46 -42.5 124 -42.5q46 0 90.5 11.5q44.5 11.5 73.5 28.5l0 -92q-24 -8 -66 -17q-42 -9 -104 -9q-130 0 -199.5 72q-69.5 72 -69.5 200q0 58 18.5 105q18.5 47 51 80q32.5 33 76.5 51q44 18 95 18q109 0 171 -64q62 -64 62 -194v-26zM289 442q-59 0 -96.5 -37.5q-37.5 -37.5 -46.5 -100.5l277 0q0 66 -38 102q-38 36 -96 36zt0 0zM236 720h106v-106l-106 0z" />
<glyph unicode="&#232;" horiz-adv-x="575" d="M146 234q8 -79 54 -121.5q46 -42.5 124 -42.5q46 0 90.5 11.5q44.5 11.5 73.5 28.5l0 -92q-24 -8 -66 -17q-42 -9 -104 -9q-130 0 -199.5 72q-69.5 72 -69.5 200q0 58 18.5 105q18.5 47 51 80q32.5 33 76.5 51q44 18 95 18q109 0 171 -64q62 -64 62 -194v-26zM289 442q-59 0 -96.5 -37.5q-37.5 -37.5 -46.5 -100.5l277 0q0 66 -38 102q-38 36 -96 36zt0 0zM132 740h120l78 -130l-80 0z" />
<glyph unicode="&#275;" horiz-adv-x="575" d="M146 234q8 -79 54 -121.5q46 -42.5 124 -42.5q46 0 90.5 11.5q44.5 11.5 73.5 28.5l0 -92q-24 -8 -66 -17q-42 -9 -104 -9q-130 0 -199.5 72q-69.5 72 -69.5 200q0 58 18.5 105q18.5 47 51 80q32.5 33 76.5 51q44 18 95 18q109 0 171 -64q62 -64 62 -194v-26zM289 442q-59 0 -96.5 -37.5q-37.5 -37.5 -46.5 -100.5l277 0q0 66 -38 102q-38 36 -96 36zt0 0zM139 725h300v-70l-300 0z" />
<glyph unicode="&#281;" horiz-adv-x="575" d="M49 264q0 58 18.5 105q18.5 47 51 80q32.5 33 76.5 51q44 18 95 18q109 0 171 -64q62 -64 62 -194v-26h-377q9 -79 55 -121.5q46 -42.5 123 -42.5q47 0 91.5 11.5q44.5 11.5 73.5 28.5l0 -86q-32 -27 -52.5 -48.5q-20.5 -21.5 -32.5 -38.5q-12 -17 -16.5 -31q-4.5 -14 -4.5 -27q0 -46 44 -46q8 0 16 1q8 1 14 3q7 2 13 5l14 -49q-14 -6 -36 -10.5q-22 -4.5 -45 -4.5q-56 0 -80 25q-24 25 -24 63q0 38 22.5 69.5q22.5 31.5 62.5 60.5q-15 -2 -31.5 -3q-16.5 -1 -36.5 -1q-126 0 -196.5 72q-70.5 72 -70.5 200zt0 0zM423 304q0 66 -37.5 102q-37.5 36 -96.5 36q-66 0 -99.5 -37.5q-33.5 -37.5 -42.5 -100.5z" />
<glyph unicode="&#601;" horiz-adv-x="575" d="M52 276h377q-8 79 -53 121.5q-45 42.5 -122 42.5q-46 0 -92 -11.5q-46 -11.5 -75 -28.5l0 92q24 8 67.5 17q43.5 9 105.5 9q130 0 198 -72q68 -72 68 -200q0 -59 -18.5 -106q-18.5 -47 -51 -80q-32.5 -33 -76.5 -50.5q-44 -17.5 -95 -17.5q-109 0 -171 64q-62 64 -62 194zM286 68q58 0 96 37.5q38 37.5 46 100.5l-276 0q0 -66 38 -102t96 -36z" />
<glyph unicode="&#102;" horiz-adv-x="370" d="M25 510h98v61q0 107 40.5 152q40.5 45 124.5 45q25 0 47 -3q22 -3 32 -5l0 -76q-16 2 -29 3q-13 1 -25 1q-28 0 -46.5 -6.5q-18.5 -6.5 -29.5 -20.5q-11 -14 -15.5 -36.5q-4.5 -22.5 -4.5 -53.5v-61h143v-76h-143v-434h-94v434l-98 0z" />
<glyph unicode="&#103;" horiz-adv-x="630" d="M276 -228q-40 0 -74 5q-34 5 -60 12q-30 7 -55 17l0 90q25 -13 55 -24q26 -9 60 -16.5q34 -7.5 74 -7.5q177 0 177 178v53h-3q-25 -37 -69.5 -58q-44.5 -21 -97.5 -21q-50 0 -92.5 18q-42.5 18 -74 51.5q-31.5 33.5 -49.5 81q-18 47.5 -18 107.5q0 62 19 110.5q19 48.5 51.5 81.5q32.5 33 76.5 50.5q44 17.5 94 17.5q58 0 98 -24q40 -24 68 -57l3 0v73h88v-484q0 -128 -65.5 -191q-65.5 -63 -205.5 -63zt0 0zM303 76q31 0 58.5 12q27.5 12 47.5 35.5q20 23.5 31.5 57q11.5 33.5 11.5 77.5q0 45 -12 79.5q-12 34.5 -33 58q-21 23.5 -49 35q-28 11.5 -61 11.5q-31 0 -58 -11q-27 -11 -47 -33.5q-20 -22.5 -31.5 -56q-11.5 -33.5 -11.5 -77.5q0 -44 12.5 -78.5q12.5 -34.5 33.5 -59q21 -24.5 49 -37.5t59 -13z" />
<glyph unicode="&#287;" horiz-adv-x="630" d="M276 -228q-40 0 -74 5q-34 5 -60 12q-30 7 -55 17l0 90q25 -13 55 -24q26 -9 60 -16.5q34 -7.5 74 -7.5q177 0 177 178v53h-3q-25 -37 -69.5 -58q-44.5 -21 -97.5 -21q-50 0 -92.5 18q-42.5 18 -74 51.5q-31.5 33.5 -49.5 81q-18 47.5 -18 107.5q0 62 19 110.5q19 48.5 51.5 81.5q32.5 33 76.5 50.5q44 17.5 94 17.5q58 0 98 -24q40 -24 68 -57l3 0v73h88v-484q0 -128 -65.5 -191q-65.5 -63 -205.5 -63zt0 0zM303 76q31 0 58.5 12q27.5 12 47.5 35.5q20 23.5 31.5 57q11.5 33.5 11.5 77.5q0 45 -12 79.5q-12 34.5 -33 58q-21 23.5 -49 35q-28 11.5 -61 11.5q-31 0 -58 -11q-27 -11 -47 -33.5q-20 -22.5 -31.5 -56q-11.5 -33.5 -11.5 -77.5q0 -44 12.5 -78.5q12.5 -34.5 33.5 -59q21 -24.5 49 -37.5q28 -13 59 -13zt0 0zM295 598q-64 0 -106.5 38q-42.5 38 -47.5 104l60 0q3 -12 9 -25q6 -13 17 -23.5q11 -10.5 27.5 -17q16.5 -6.5 40.5 -6.5q24 0 40.5 6.5q16.5 6.5 27.5 17q11 10.5 17 23.5q6 13 9 25l60 0q-5 -66 -47.5 -104t-106.5 -38z" />
<glyph unicode="&#487;" horiz-adv-x="630" d="M276 -228q-40 0 -74 5q-34 5 -60 12q-30 7 -55 17l0 90q25 -13 55 -24q26 -9 60 -16.5q34 -7.5 74 -7.5q177 0 177 178v53h-3q-25 -37 -69.5 -58q-44.5 -21 -97.5 -21q-50 0 -92.5 18q-42.5 18 -74 51.5q-31.5 33.5 -49.5 81q-18 47.5 -18 107.5q0 62 19 110.5q19 48.5 51.5 81.5q32.5 33 76.5 50.5q44 17.5 94 17.5q58 0 98 -24q40 -24 68 -57l3 0v73h88v-484q0 -128 -65.5 -191q-65.5 -63 -205.5 -63zt0 0zM303 76q31 0 58.5 12q27.5 12 47.5 35.5q20 23.5 31.5 57q11.5 33.5 11.5 77.5q0 45 -12 79.5q-12 34.5 -33 58q-21 23.5 -49 35q-28 11.5 -61 11.5q-31 0 -58 -11q-27 -11 -47 -33.5q-20 -22.5 -31.5 -56q-11.5 -33.5 -11.5 -77.5q0 -44 12.5 -78.5q12.5 -34.5 33.5 -59q21 -24.5 49 -37.5q28 -13 59 -13zt0 0zM150 740h76l69 -84l69 84h76l-100 -130l-90 0z" />
<glyph unicode="&#285;" horiz-adv-x="630" d="M276 -228q-40 0 -74 5q-34 5 -60 12q-30 7 -55 17l0 90q25 -13 55 -24q26 -9 60 -16.5q34 -7.5 74 -7.5q177 0 177 178v53h-3q-25 -37 -69.5 -58q-44.5 -21 -97.5 -21q-50 0 -92.5 18q-42.5 18 -74 51.5q-31.5 33.5 -49.5 81q-18 47.5 -18 107.5q0 62 19 110.5q19 48.5 51.5 81.5q32.5 33 76.5 50.5q44 17.5 94 17.5q58 0 98 -24q40 -24 68 -57l3 0v73h88v-484q0 -128 -65.5 -191q-65.5 -63 -205.5 -63zt0 0zM303 76q31 0 58.5 12q27.5 12 47.5 35.5q20 23.5 31.5 57q11.5 33.5 11.5 77.5q0 45 -12 79.5q-12 34.5 -33 58q-21 23.5 -49 35q-28 11.5 -61 11.5q-31 0 -58 -11q-27 -11 -47 -33.5q-20 -22.5 -31.5 -56q-11.5 -33.5 -11.5 -77.5q0 -44 12.5 -78.5q12.5 -34.5 33.5 -59q21 -24.5 49 -37.5q28 -13 59 -13zt0 0zM250 740h90l100 -130h-76l-69 84l-69 -84l-76 0z" />
<glyph unicode="&#289;" horiz-adv-x="630" d="M276 -228q-40 0 -74 5q-34 5 -60 12q-30 7 -55 17l0 90q25 -13 55 -24q26 -9 60 -16.5q34 -7.5 74 -7.5q177 0 177 178v53h-3q-25 -37 -69.5 -58q-44.5 -21 -97.5 -21q-50 0 -92.5 18q-42.5 18 -74 51.5q-31.5 33.5 -49.5 81q-18 47.5 -18 107.5q0 62 19 110.5q19 48.5 51.5 81.5q32.5 33 76.5 50.5q44 17.5 94 17.5q58 0 98 -24q40 -24 68 -57l3 0v73h88v-484q0 -128 -65.5 -191q-65.5 -63 -205.5 -63zt0 0zM303 76q31 0 58.5 12q27.5 12 47.5 35.5q20 23.5 31.5 57q11.5 33.5 11.5 77.5q0 45 -12 79.5q-12 34.5 -33 58q-21 23.5 -49 35q-28 11.5 -61 11.5q-31 0 -58 -11q-27 -11 -47 -33.5q-20 -22.5 -31.5 -56q-11.5 -33.5 -11.5 -77.5q0 -44 12.5 -78.5q12.5 -34.5 33.5 -59q21 -24.5 49 -37.5q28 -13 59 -13zt0 0zM242 720h106v-106l-106 0z" />
<glyph unicode="&#104;" horiz-adv-x="610" d="M83 760h94v-250l-1 -73h3q29 41 72 61q43 20 98 20q90 0 142 -53.5q52 -53.5 52 -164.5v-300h-94v270q0 49 -8.5 82.5q-8.5 33.5 -24 53q-15.5 19.5 -38 28q-22.5 8.5 -49.5 8.5q-69 0 -110.5 -49.5q-41.5 -49.5 -41.5 -152.5v-240l-94 0z" />
<glyph unicode="&#295;" horiz-adv-x="610" d="M-9 680h92v80h94v-80h218v-76h-218v-94l-1 -73h3q29 41 72 61q43 20 98 20q90 0 142 -53.5q52 -53.5 52 -164.5v-300h-94v270q0 49 -8.5 82.5q-8.5 33.5 -24 53q-15.5 19.5 -38 28q-22.5 8.5 -49.5 8.5q-69 0 -110.5 -49.5q-41.5 -49.5 -41.5 -152.5v-240h-94v604l-92 0z" />
<glyph unicode="&#293;" horiz-adv-x="610" d="M83 760h94v-250l-1 -73h3q29 41 72 61q43 20 98 20q90 0 142 -53.5q52 -53.5 52 -164.5v-300h-94v270q0 49 -8.5 82.5q-8.5 33.5 -24 53q-15.5 19.5 -38 28q-22.5 8.5 -49.5 8.5q-69 0 -110.5 -49.5q-41.5 -49.5 -41.5 -152.5v-240h-94zM85 930h90l100 -130h-76l-69 84l-69 -84l-76 0z" />
<glyph unicode="&#105;" horiz-adv-x="290" d="M98 510h94v-510h-94zM92 720h106v-106l-106 0z" />
<glyph unicode="&#305;" horiz-adv-x="290" d="M98 510h94v-510l-94 0z" />
<glyph unicode="&#237;" horiz-adv-x="290" d="M98 510h94v-510h-94zM181 740h120l-118 -130l-80 0z" />
<glyph unicode="&#238;" horiz-adv-x="290" d="M98 510h94v-510h-94zM100 740h90l80 -130h-76l-49 84l-49 -84l-76 0z" />
<glyph unicode="&#239;" horiz-adv-x="290" d="M98 510h94v-510h-94zM173 720h94v-100h-94zM23 720h94v-100l-94 0z" />
<glyph unicode="&#236;" horiz-adv-x="290" d="M98 510h94v-510h-94zM-12 740h120l78 -130l-80 0z" />
<glyph unicode="&#307;" horiz-adv-x="580" d="M98 510h94v-510h-94zM321 -228q-12 0 -20.5 0.5q-8.5 0.5 -14.5 1.5q-7 1 -12 3l0 80q5 -1 10 -2q5 -1 10.5 -1.5q5.5 -0.5 13.5 -0.5q37 0 58.5 22q21.5 22 21.5 81v554h94v-554q0 -54 -10 -89.5q-10 -35.5 -30.5 -56.5q-20.5 -21 -50.5 -29.5q-30 -8.5 -70 -8.5zt0 0zM92 720h106v-106h-106zM382 720h106v-106l-106 0z" />
<glyph unicode="&#299;" horiz-adv-x="290" d="M98 510h94v-510h-94zM15 725h260v-70l-260 0z" />
<glyph unicode="&#303;" horiz-adv-x="290" d="M98 510h94v-510q-32 -23 -52.5 -40.5q-20.5 -17.5 -32.5 -32q-12 -14.5 -16.5 -26q-4.5 -11.5 -4.5 -23.5q0 -20 10.5 -32.5q10.5 -12.5 30.5 -12.5q10 0 18.5 1q8.5 1 14.5 3q7 2 13 5l14 -49q-14 -6 -35.5 -10.5q-21.5 -4.5 -44.5 -4.5q-57 0 -81 24q-24 24 -24 64q0 38 28.5 71.5q28.5 33.5 79.5 62.5l-12 0zM92 720h106v-106l-106 0z" />
<glyph unicode="&#106;" horiz-adv-x="290" d="M31 -228q-12 0 -20.5 0.5q-8.5 0.5 -14.5 1.5q-7 1 -12 3l0 80q5 -1 10 -2q5 -1 10.5 -1.5q5.5 -0.5 13.5 -0.5q37 0 58.5 22q21.5 22 21.5 81v554h94v-554q0 -54 -10 -89.5q-10 -35.5 -30.5 -56.5q-20.5 -21 -50.5 -29.5q-30 -8.5 -70 -8.5zt0 0zM92 720h106v-106l-106 0z" />
<glyph unicode="&#567;" horiz-adv-x="290" d="M31 -228q-12 0 -20.5 0.5q-8.5 0.5 -14.5 1.5q-7 1 -12 3l0 80q5 -1 10 -2q5 -1 10.5 -1.5q5.5 -0.5 13.5 -0.5q37 0 58.5 22q21.5 22 21.5 81v554h94v-554q0 -54 -10 -89.5q-10 -35.5 -30.5 -56.5q-20.5 -21 -50.5 -29.5t-70 -8.5z" />
<glyph unicode="&#309;" horiz-adv-x="290" d="M31 -228q-12 0 -20.5 0.5q-8.5 0.5 -14.5 1.5q-7 1 -12 3l0 80q5 -1 10 -2q5 -1 10.5 -1.5q5.5 -0.5 13.5 -0.5q37 0 58.5 22q21.5 22 21.5 81v554h94v-554q0 -54 -10 -89.5q-10 -35.5 -30.5 -56.5q-20.5 -21 -50.5 -29.5q-30 -8.5 -70 -8.5zt0 0zM100 740h90l80 -130h-76l-49 84l-49 -84l-76 0z" />
<glyph unicode="&#107;" horiz-adv-x="555" d="M83 760h94v-488l247 238h117l-227 -212l230 -298h-115l-181 240l-71 -67v-173l-94 0z" />
<glyph unicode="&#108;" horiz-adv-x="290" d="M98 762h94v-762l-94 0z" />
<glyph unicode="&#314;" horiz-adv-x="290" d="M98 762h94v-762h-94zM181 930h120l-118 -130l-80 0z" />
<glyph unicode="&#318;" horiz-adv-x="290" d="M98 762h94v-762h-94zM261 762h100l-70 -168l-70 0z" />
<glyph unicode="&#320;" horiz-adv-x="450" d="M315 449h110v-112h-110zM98 762h94v-762l-94 0z" />
<glyph unicode="&#322;" horiz-adv-x="300" d="M103 317l-99 -61v90l99 61v355h94v-297l99 61v-90l-99 -61v-375l-94 0z" />
<glyph unicode="&#109;" horiz-adv-x="885" d="M83 510h88v-74h2q26 42 70.5 62q44.5 20 89.5 20q54 0 91.5 -26q37.5 -26 56.5 -73q26 49 69 74q43 25 100 25q42 0 73.5 -14.5q31.5 -14.5 52.5 -40q21 -25.5 31.5 -60.5q10.5 -35 10.5 -76v-327h-94v304q0 60 -21 99q-21 39 -74 39q-34 0 -59 -16q-25 -16 -41 -42q-16 -26 -24 -59q-8 -33 -8 -68v-257h-93v304q0 62 -22 100q-22 38 -73 38q-32 0 -56.5 -14.5q-24.5 -14.5 -41.5 -39.5q-17 -25 -25.5 -59q-8.5 -34 -8.5 -72v-257l-94 0z" />
<glyph unicode="&#110;" horiz-adv-x="610" d="M83 510h94v-73h2q29 41 72.5 61q43.5 20 97.5 20q90 0 142 -53.5q52 -53.5 52 -164.5v-300h-94v270q0 49 -8.5 82.5q-8.5 33.5 -24 53q-15.5 19.5 -38 28q-22.5 8.5 -49.5 8.5q-69 0 -110.5 -49.5q-41.5 -49.5 -41.5 -152.5v-240l-94 0z" />
<glyph unicode="&#324;" horiz-adv-x="610" d="M83 510h94v-73h2q29 41 72.5 61q43.5 20 97.5 20q90 0 142 -53.5q52 -53.5 52 -164.5v-300h-94v270q0 49 -8.5 82.5q-8.5 33.5 -24 53q-15.5 19.5 -38 28q-22.5 8.5 -49.5 8.5q-69 0 -110.5 -49.5q-41.5 -49.5 -41.5 -152.5v-240h-94zM341 740h120l-118 -130l-80 0z" />
<glyph unicode="&#328;" horiz-adv-x="610" d="M83 510h94v-73h2q29 41 72.5 61q43.5 20 97.5 20q90 0 142 -53.5q52 -53.5 52 -164.5v-300h-94v270q0 49 -8.5 82.5q-8.5 33.5 -24 53q-15.5 19.5 -38 28q-22.5 8.5 -49.5 8.5q-69 0 -110.5 -49.5q-41.5 -49.5 -41.5 -152.5v-240h-94zM160 740h76l69 -84l69 84h76l-100 -130l-90 0z" />
<glyph unicode="&#241;" horiz-adv-x="610" d="M83 510h94v-73h2q29 41 72.5 61q43.5 20 97.5 20q90 0 142 -53.5q52 -53.5 52 -164.5v-300h-94v270q0 49 -8.5 82.5q-8.5 33.5 -24 53q-15.5 19.5 -38 28q-22.5 8.5 -49.5 8.5q-69 0 -110.5 -49.5q-41.5 -49.5 -41.5 -152.5v-240h-94zM144 616q1 21 7.5 41.5q6.5 20.5 17.5 36q11 15.5 27.5 25q16.5 9.5 38.5 9.5q7 0 13.5 -1q6.5 -1 14.5 -4q8 -3 20 -8q12 -5 30 -12q13 -5 29.5 -13q16.5 -8 36.5 -8q35 0 44 46l44 0q-3 -22 -9.5 -42.5q-6.5 -20.5 -17 -36q-10.5 -15.5 -26.5 -24.5q-16 -9 -38 -9q-15 0 -30 5.5q-15 5.5 -49 19.5q-13 5 -29.5 13q-16.5 8 -36.5 8q-35 0 -44 -46l-43 0z" />
<glyph unicode="&#111;" horiz-adv-x="620" d="M310 -8q-58 0 -106 19q-48 19 -82.5 54q-34.5 35 -53.5 83q-19 48 -19 107q0 58 19 106.5q19 48.5 53.5 83.5q34.5 35 82.5 54q48 19 106 19q58 0 106 -19q48 -19 82.5 -54q34.5 -35 53.5 -83.5q19 -48.5 19 -106.5q0 -59 -19 -107q-19 -48 -53.5 -83q-34.5 -35 -82.5 -54q-48 -19 -106 -19zt0 0zM310 68q33 0 62.5 13q29.5 13 51 37.5q21.5 24.5 34.5 59q13 34.5 13 77.5q0 43 -13 77.5q-13 34.5 -35 59q-22 24.5 -51 37.5q-29 13 -62 13q-33 0 -62.5 -13q-29.5 -13 -51 -37.5q-21.5 -24.5 -34.5 -59q-13 -34.5 -13 -77.5q0 -43 13 -77.5q13 -34.5 34.5 -59q21.5 -24.5 51 -37.5t62.5 -13z" />
<glyph unicode="&#243;" horiz-adv-x="620" d="M310 -8q-58 0 -106 19q-48 19 -82.5 54q-34.5 35 -53.5 83q-19 48 -19 107q0 58 19 106.5q19 48.5 53.5 83.5q34.5 35 82.5 54q48 19 106 19q58 0 106 -19q48 -19 82.5 -54q34.5 -35 53.5 -83.5q19 -48.5 19 -106.5q0 -59 -19 -107q-19 -48 -53.5 -83q-34.5 -35 -82.5 -54q-48 -19 -106 -19zt0 0zM310 68q33 0 62.5 13q29.5 13 51 37.5q21.5 24.5 34.5 59q13 34.5 13 77.5q0 43 -13 77.5q-13 34.5 -35 59q-22 24.5 -51 37.5q-29 13 -62 13q-33 0 -62.5 -13q-29.5 -13 -51 -37.5q-21.5 -24.5 -34.5 -59q-13 -34.5 -13 -77.5q0 -43 13 -77.5q13 -34.5 34.5 -59q21.5 -24.5 51 -37.5q29.5 -13 62.5 -13zt0 0zM346 740h120l-118 -130l-80 0z" />
<glyph unicode="&#335;" horiz-adv-x="620" d="M310 -8q-58 0 -106 19q-48 19 -82.5 54q-34.5 35 -53.5 83q-19 48 -19 107q0 58 19 106.5q19 48.5 53.5 83.5q34.5 35 82.5 54q48 19 106 19q58 0 106 -19q48 -19 82.5 -54q34.5 -35 53.5 -83.5q19 -48.5 19 -106.5q0 -59 -19 -107q-19 -48 -53.5 -83q-34.5 -35 -82.5 -54q-48 -19 -106 -19zt0 0zM310 68q33 0 62.5 13q29.5 13 51 37.5q21.5 24.5 34.5 59q13 34.5 13 77.5q0 43 -13 77.5q-13 34.5 -35 59q-22 24.5 -51 37.5q-29 13 -62 13q-33 0 -62.5 -13q-29.5 -13 -51 -37.5q-21.5 -24.5 -34.5 -59q-13 -34.5 -13 -77.5q0 -43 13 -77.5q13 -34.5 34.5 -59q21.5 -24.5 51 -37.5q29.5 -13 62.5 -13zt0 0zM310 598q-64 0 -106.5 38q-42.5 38 -47.5 104l60 0q3 -12 9 -25q6 -13 17 -23.5q11 -10.5 27.5 -17q16.5 -6.5 40.5 -6.5q24 0 40.5 6.5q16.5 6.5 27.5 17q11 10.5 17 23.5q6 13 9 25l60 0q-5 -66 -47.5 -104t-106.5 -38z" />
<glyph unicode="&#244;" horiz-adv-x="620" d="M310 -8q-58 0 -106 19q-48 19 -82.5 54q-34.5 35 -53.5 83q-19 48 -19 107q0 58 19 106.5q19 48.5 53.5 83.5q34.5 35 82.5 54q48 19 106 19q58 0 106 -19q48 -19 82.5 -54q34.5 -35 53.5 -83.5q19 -48.5 19 -106.5q0 -59 -19 -107q-19 -48 -53.5 -83q-34.5 -35 -82.5 -54q-48 -19 -106 -19zt0 0zM310 68q33 0 62.5 13q29.5 13 51 37.5q21.5 24.5 34.5 59q13 34.5 13 77.5q0 43 -13 77.5q-13 34.5 -35 59q-22 24.5 -51 37.5q-29 13 -62 13q-33 0 -62.5 -13q-29.5 -13 -51 -37.5q-21.5 -24.5 -34.5 -59q-13 -34.5 -13 -77.5q0 -43 13 -77.5q13 -34.5 34.5 -59q21.5 -24.5 51 -37.5q29.5 -13 62.5 -13zt0 0zM265 740h90l100 -130h-76l-69 84l-69 -84l-76 0z" />
<glyph unicode="&#246;" horiz-adv-x="620" d="M310 -8q-58 0 -106 19q-48 19 -82.5 54q-34.5 35 -53.5 83q-19 48 -19 107q0 58 19 106.5q19 48.5 53.5 83.5q34.5 35 82.5 54q48 19 106 19q58 0 106 -19q48 -19 82.5 -54q34.5 -35 53.5 -83.5q19 -48.5 19 -106.5q0 -59 -19 -107q-19 -48 -53.5 -83q-34.5 -35 -82.5 -54q-48 -19 -106 -19zt0 0zM310 68q33 0 62.5 13q29.5 13 51 37.5q21.5 24.5 34.5 59q13 34.5 13 77.5q0 43 -13 77.5q-13 34.5 -35 59q-22 24.5 -51 37.5q-29 13 -62 13q-33 0 -62.5 -13q-29.5 -13 -51 -37.5q-21.5 -24.5 -34.5 -59q-13 -34.5 -13 -77.5q0 -43 13 -77.5q13 -34.5 34.5 -59q21.5 -24.5 51 -37.5q29.5 -13 62.5 -13zt0 0zM356 720h94v-100h-94zM170 720h94v-100l-94 0z" />
<glyph unicode="&#242;" horiz-adv-x="620" d="M310 -8q-58 0 -106 19q-48 19 -82.5 54q-34.5 35 -53.5 83q-19 48 -19 107q0 58 19 106.5q19 48.5 53.5 83.5q34.5 35 82.5 54q48 19 106 19q58 0 106 -19q48 -19 82.5 -54q34.5 -35 53.5 -83.5q19 -48.5 19 -106.5q0 -59 -19 -107q-19 -48 -53.5 -83q-34.5 -35 -82.5 -54q-48 -19 -106 -19zt0 0zM310 68q33 0 62.5 13q29.5 13 51 37.5q21.5 24.5 34.5 59q13 34.5 13 77.5q0 43 -13 77.5q-13 34.5 -35 59q-22 24.5 -51 37.5q-29 13 -62 13q-33 0 -62.5 -13q-29.5 -13 -51 -37.5q-21.5 -24.5 -34.5 -59q-13 -34.5 -13 -77.5q0 -43 13 -77.5q13 -34.5 34.5 -59q21.5 -24.5 51 -37.5q29.5 -13 62.5 -13zt0 0zM153 740h120l78 -130l-80 0z" />
<glyph unicode="&#337;" horiz-adv-x="620" d="M310 -8q-58 0 -106 19q-48 19 -82.5 54q-34.5 35 -53.5 83q-19 48 -19 107q0 58 19 106.5q19 48.5 53.5 83.5q34.5 35 82.5 54q48 19 106 19q58 0 106 -19q48 -19 82.5 -54q34.5 -35 53.5 -83.5q19 -48.5 19 -106.5q0 -59 -19 -107q-19 -48 -53.5 -83q-34.5 -35 -82.5 -54q-48 -19 -106 -19zt0 0zM310 68q33 0 62.5 13q29.5 13 51 37.5q21.5 24.5 34.5 59q13 34.5 13 77.5q0 43 -13 77.5q-13 34.5 -35 59q-22 24.5 -51 37.5q-29 13 -62 13q-33 0 -62.5 -13q-29.5 -13 -51 -37.5q-21.5 -24.5 -34.5 -59q-13 -34.5 -13 -77.5q0 -43 13 -77.5q13 -34.5 34.5 -59q21.5 -24.5 51 -37.5q29.5 -13 62.5 -13zt0 0zM442 740h110l-128 -130h-70zM261 740h110l-128 -130l-70 0z" />
<glyph unicode="&#333;" horiz-adv-x="620" d="M310 -8q-58 0 -106 19q-48 19 -82.5 54q-34.5 35 -53.5 83q-19 48 -19 107q0 58 19 106.5q19 48.5 53.5 83.5q34.5 35 82.5 54q48 19 106 19q58 0 106 -19q48 -19 82.5 -54q34.5 -35 53.5 -83.5q19 -48.5 19 -106.5q0 -59 -19 -107q-19 -48 -53.5 -83q-34.5 -35 -82.5 -54q-48 -19 -106 -19zt0 0zM310 68q33 0 62.5 13q29.5 13 51 37.5q21.5 24.5 34.5 59q13 34.5 13 77.5q0 43 -13 77.5q-13 34.5 -35 59q-22 24.5 -51 37.5q-29 13 -62 13q-33 0 -62.5 -13q-29.5 -13 -51 -37.5q-21.5 -24.5 -34.5 -59q-13 -34.5 -13 -77.5q0 -43 13 -77.5q13 -34.5 34.5 -59q21.5 -24.5 51 -37.5q29.5 -13 62.5 -13zt0 0zM160 725h300v-70l-300 0z" />
<glyph unicode="&#248;" horiz-adv-x="620" d="M310 -8q-86 0 -151 42l-56 -67l-41 35l56 67q-33 35 -51 82q-18 47 -18 104q0 58 19 106.5q19 48.5 53.5 83.5q34.5 35 82.5 54q48 19 106 19q85 0 150 -42l56 67l42 -35l-56 -67q33 -35 51 -82q18 -47 18 -104q0 -59 -19 -107q-19 -48 -53.5 -83q-34.5 -35 -82.5 -54q-48 -19 -106 -19zt0 0zM310 68q33 0 62.5 13q29.5 13 51 37.5q21.5 24.5 34.5 59q13 34.5 13 77.5q0 34 -8.5 62q-8.5 28 -22.5 51l-225 -267q40 -33 95 -33zt0 0zM149 255q0 -67 30 -114l225 268q-42 33 -94 33q-33 0 -62.5 -13q-29.5 -13 -51 -37.5q-21.5 -24.5 -34.5 -59t-13 -77.5z" />
<glyph unicode="&#245;" horiz-adv-x="620" d="M310 -8q-58 0 -106 19q-48 19 -82.5 54q-34.5 35 -53.5 83q-19 48 -19 107q0 58 19 106.5q19 48.5 53.5 83.5q34.5 35 82.5 54q48 19 106 19q58 0 106 -19q48 -19 82.5 -54q34.5 -35 53.5 -83.5q19 -48.5 19 -106.5q0 -59 -19 -107q-19 -48 -53.5 -83q-34.5 -35 -82.5 -54q-48 -19 -106 -19zt0 0zM310 68q33 0 62.5 13q29.5 13 51 37.5q21.5 24.5 34.5 59q13 34.5 13 77.5q0 43 -13 77.5q-13 34.5 -35 59q-22 24.5 -51 37.5q-29 13 -62 13q-33 0 -62.5 -13q-29.5 -13 -51 -37.5q-21.5 -24.5 -34.5 -59q-13 -34.5 -13 -77.5q0 -43 13 -77.5q13 -34.5 34.5 -59q21.5 -24.5 51 -37.5q29.5 -13 62.5 -13zt0 0zM149 616q1 21 7.5 41.5q6.5 20.5 17.5 36q11 15.5 27.5 25q16.5 9.5 38.5 9.5q7 0 13.5 -1q6.5 -1 14.5 -4q8 -3 20 -8q12 -5 30 -12q13 -5 29.5 -13q16.5 -8 36.5 -8q35 0 44 46l44 0q-3 -22 -9.5 -42.5q-6.5 -20.5 -17 -36q-10.5 -15.5 -26.5 -24.5q-16 -9 -38 -9q-15 0 -30 5.5q-15 5.5 -49 19.5q-13 5 -29.5 13q-16.5 8 -36.5 8q-35 0 -44 -46l-43 0z" />
<glyph unicode="&#339;" horiz-adv-x="940" d="M708 -8q-77 0 -130.5 31q-53.5 31 -87.5 89l-2 0q-33 -57 -82 -88.5q-49 -31.5 -114 -31.5q-54 0 -98.5 19q-44.5 19 -76.5 54q-32 35 -50 83q-18 48 -18 107q0 58 18 106.5q18 48.5 50 83.5q32 35 76.5 54q44.5 19 98.5 19q64 0 113 -31.5q49 -31.5 83 -86.5l2 0q32 57 79.5 87.5q47.5 30.5 110.5 30.5q95 0 151.5 -64q56.5 -64 56.5 -194v-26h-349q8 -78 53 -121q45 -43 116 -43q40 0 79 11.5q39 11.5 66 28.5l0 -92q-23 -8 -58.5 -17q-35.5 -9 -86.5 -9zt0 0zM149 255q0 -43 11.5 -77.5q11.5 -34.5 31 -59q19.5 -24.5 46 -37.5q26.5 -13 56.5 -13q30 0 56.5 13q26.5 13 46 37.5q19.5 24.5 31 59q11.5 34.5 11.5 77.5q0 43 -11.5 77.5q-11.5 34.5 -31.5 59q-20 24.5 -46 37.5q-26 13 -56 13q-30 0 -56.5 -13q-26.5 -13 -46 -37.5q-19.5 -24.5 -31 -59q-11.5 -34.5 -11.5 -77.5zt0 0zM672 442q-54 0 -88.5 -37q-34.5 -37 -43.5 -101l248 0q0 66 -32.5 102t-83.5 36z" />
<glyph unicode="&#112;" horiz-adv-x="630" d="M177 67h4q22 -28 64.5 -51.5q42.5 -23.5 104.5 -23.5q54 0 97 21.5q43 21.5 73 58q30 36.5 45.5 85q15.5 48.5 15.5 102.5q0 55 -16 102.5q-16 47.5 -46 82.5q-30 35 -74 54.5q-44 19.5 -100 19.5q-15 0 -36 -2.5q-21 -2.5 -44 -11q-23 -8.5 -46.5 -24.5q-23.5 -16 -43.5 -43l-2 0v73h-90v-734h94zM328 68q-69 0 -110 50.5q-41 50.5 -41 135.5q0 86 41.5 137q41.5 51 112.5 51q69 0 109.5 -49q40.5 -49 40.5 -131q0 -89 -41.5 -141.5t-111.5 -52.5z" />
<glyph unicode="&#254;" horiz-adv-x="630" d="M83 -224v984h94v-323h3q19 27 42 43q23 16 45 24.5q22 8.5 42.5 11q20.5 2.5 35.5 2.5q56 0 100 -19.5q44 -19.5 74 -54.5q30 -35 46 -82.5q16 -47.5 16 -102.5q0 -54 -15.5 -102.5q-15.5 -48.5 -45.5 -85q-30 -36.5 -73 -58q-43 -21.5 -97 -21.5q-62 0 -104.5 23.5q-42.5 23.5 -64.5 51.5l-4 0v-291zM328 68q70 0 111.5 52.5q41.5 52.5 41.5 141.5q0 82 -40.5 131q-40.5 49 -109.5 49q-71 0 -112.5 -51q-41.5 -51 -41.5 -137q0 -85 41 -135.5t110 -50.5z" />
<glyph unicode="&#113;" horiz-adv-x="630" d="M453 67h-4q-22 -28 -64.5 -51.5q-42.5 -23.5 -104.5 -23.5q-54 0 -97 21.5q-43 21.5 -73 58q-30 36.5 -45.5 85q-15.5 48.5 -15.5 102.5q0 55 16 102.5q16 47.5 46 82.5q30 35 74 54.5q44 19.5 100 19.5q15 0 36 -2.5q21 -2.5 44 -11q23 -8.5 46.5 -24.5q23.5 -16 43.5 -43l2 0v73h90v-734h-94zM302 68q69 0 110 50.5q41 50.5 41 135.5q0 86 -41.5 137q-41.5 51 -112.5 51q-69 0 -109.5 -49q-40.5 -49 -40.5 -131q0 -89 41.5 -141.5t111.5 -52.5z" />
<glyph unicode="&#114;" horiz-adv-x="405" d="M83 510h88v-83h2q25 49 60.5 70q35.5 21 85.5 21q14 0 28.5 -1.5q14.5 -1.5 30.5 -3.5l0 -82q-15 2 -29 3.5q-14 1.5 -27 1.5q-77 0 -111 -53q-34 -53 -34 -155v-228l-94 0z" />
<glyph unicode="&#341;" horiz-adv-x="405" d="M83 510h88v-83h2q25 49 60.5 70q35.5 21 85.5 21q14 0 28.5 -1.5q14.5 -1.5 30.5 -3.5l0 -82q-15 2 -29 3.5q-14 1.5 -27 1.5q-77 0 -111 -53q-34 -53 -34 -155v-228h-94zM241 740h120l-118 -130l-80 0z" />
<glyph unicode="&#345;" horiz-adv-x="405" d="M83 510h88v-83h2q25 49 60.5 70q35.5 21 85.5 21q14 0 28.5 -1.5q14.5 -1.5 30.5 -3.5l0 -82q-15 2 -29 3.5q-14 1.5 -27 1.5q-77 0 -111 -53q-34 -53 -34 -155v-228h-94zM60 740h76l69 -84l69 84h76l-100 -130l-90 0z" />
<glyph unicode="&#115;" horiz-adv-x="470" d="M212 -8q-51 0 -87.5 8.5q-36.5 8.5 -64.5 19.5l0 83q51 -23 88.5 -28.5q37.5 -5.5 54.5 -5.5q58 0 84 20.5q26 20.5 26 46.5q0 16 -8.5 27.5q-8.5 11.5 -22.5 21.5q-14 10 -33 18.5q-19 8.5 -40 17.5q-29 13 -56.5 26.5q-27.5 13.5 -48.5 31q-21 17.5 -34 41.5q-13 24 -13 58q0 63 50.5 101.5q50.5 38.5 147.5 38.5q50 0 88 -8q38 -8 49 -12l0 -80q-29 12 -61.5 17q-32.5 5 -64.5 5q-57 0 -82 -15.5q-25 -15.5 -25 -41.5q0 -15 8 -26.5q8 -11.5 21.5 -21q13.5 -9.5 31.5 -18q18 -8.5 38 -17.5q27 -12 55.5 -24.5q28.5 -12.5 52 -30.5q23.5 -18 38 -43q14.5 -25 14.5 -62q0 -66 -53.5 -107t-152.5 -41z" />
<glyph unicode="&#347;" horiz-adv-x="470" d="M212 -8q-51 0 -87.5 8.5q-36.5 8.5 -64.5 19.5l0 83q51 -23 88.5 -28.5q37.5 -5.5 54.5 -5.5q58 0 84 20.5q26 20.5 26 46.5q0 16 -8.5 27.5q-8.5 11.5 -22.5 21.5q-14 10 -33 18.5q-19 8.5 -40 17.5q-29 13 -56.5 26.5q-27.5 13.5 -48.5 31q-21 17.5 -34 41.5q-13 24 -13 58q0 63 50.5 101.5q50.5 38.5 147.5 38.5q50 0 88 -8q38 -8 49 -12l0 -80q-29 12 -61.5 17q-32.5 5 -64.5 5q-57 0 -82 -15.5q-25 -15.5 -25 -41.5q0 -15 8 -26.5q8 -11.5 21.5 -21q13.5 -9.5 31.5 -18q18 -8.5 38 -17.5q27 -12 55.5 -24.5q28.5 -12.5 52 -30.5q23.5 -18 38 -43q14.5 -25 14.5 -62q0 -66 -53.5 -107q-53.5 -41 -152.5 -41zt0 0zM271 740h120l-118 -130l-80 0z" />
<glyph unicode="&#353;" horiz-adv-x="470" d="M212 -8q-51 0 -87.5 8.5q-36.5 8.5 -64.5 19.5l0 83q51 -23 88.5 -28.5q37.5 -5.5 54.5 -5.5q58 0 84 20.5q26 20.5 26 46.5q0 16 -8.5 27.5q-8.5 11.5 -22.5 21.5q-14 10 -33 18.5q-19 8.5 -40 17.5q-29 13 -56.5 26.5q-27.5 13.5 -48.5 31q-21 17.5 -34 41.5q-13 24 -13 58q0 63 50.5 101.5q50.5 38.5 147.5 38.5q50 0 88 -8q38 -8 49 -12l0 -80q-29 12 -61.5 17q-32.5 5 -64.5 5q-57 0 -82 -15.5q-25 -15.5 -25 -41.5q0 -15 8 -26.5q8 -11.5 21.5 -21q13.5 -9.5 31.5 -18q18 -8.5 38 -17.5q27 -12 55.5 -24.5q28.5 -12.5 52 -30.5q23.5 -18 38 -43q14.5 -25 14.5 -62q0 -66 -53.5 -107q-53.5 -41 -152.5 -41zt0 0zM90 740h76l69 -84l69 84h76l-100 -130l-90 0z" />
<glyph unicode="&#351;" horiz-adv-x="470" d="M231 -194q-18 0 -34 5.5q-16 5.5 -35 19.5l21 40q21 -13 42 -13q17 0 30 8q13 8 13 28q0 19 -13 27.5q-13 8.5 -33 8.5q-14 0 -26 -3l8 65q-48 1 -83 9q-35 8 -61 19l0 83q51 -23 88.5 -28.5q37.5 -5.5 54.5 -5.5q58 0 84 20.5q26 20.5 26 46.5q0 16 -8.5 27.5q-8.5 11.5 -22.5 21.5q-14 10 -33 18.5q-19 8.5 -40 17.5q-29 13 -56.5 26.5q-27.5 13.5 -48.5 31q-21 17.5 -34 41.5q-13 24 -13 58q0 63 50.5 101.5q50.5 38.5 147.5 38.5q50 0 88 -8q38 -8 49 -12l0 -80q-29 12 -61.5 17q-32.5 5 -64.5 5q-57 0 -82 -15.5q-25 -15.5 -25 -41.5q0 -15 8 -26.5q8 -11.5 21.5 -21q13.5 -9.5 31.5 -18q18 -8.5 38 -17.5q27 -12 55.5 -24.5q28.5 -12.5 52 -30.5q23.5 -18 38 -43q14.5 -25 14.5 -62q0 -58 -41.5 -97q-41.5 -39 -118.5 -48l-3 -23q42 -2 59.5 -21q17.5 -19 17.5 -53q0 -41 -28.5 -66.5t-72.5 -25.5z" />
<glyph unicode="&#349;" horiz-adv-x="470" d="M212 -8q-51 0 -87.5 8.5q-36.5 8.5 -64.5 19.5l0 83q51 -23 88.5 -28.5q37.5 -5.5 54.5 -5.5q58 0 84 20.5q26 20.5 26 46.5q0 16 -8.5 27.5q-8.5 11.5 -22.5 21.5q-14 10 -33 18.5q-19 8.5 -40 17.5q-29 13 -56.5 26.5q-27.5 13.5 -48.5 31q-21 17.5 -34 41.5q-13 24 -13 58q0 63 50.5 101.5q50.5 38.5 147.5 38.5q50 0 88 -8q38 -8 49 -12l0 -80q-29 12 -61.5 17q-32.5 5 -64.5 5q-57 0 -82 -15.5q-25 -15.5 -25 -41.5q0 -15 8 -26.5q8 -11.5 21.5 -21q13.5 -9.5 31.5 -18q18 -8.5 38 -17.5q27 -12 55.5 -24.5q28.5 -12.5 52 -30.5q23.5 -18 38 -43q14.5 -25 14.5 -62q0 -66 -53.5 -107q-53.5 -41 -152.5 -41zt0 0zM190 740h90l100 -130h-76l-69 84l-69 -84l-76 0z" />
<glyph unicode="&#223;" horiz-adv-x="625" d="M351 -8q-12 0 -39 1.5q-27 1.5 -55 7.5l0 79q20 -7 43 -9.5q23 -2.5 39 -2.5q63 0 103 37q40 37 40 112q0 75 -42.5 107.5q-42.5 32.5 -117.5 32.5h-28v76h16q66 0 103 32q37 32 37 96q0 61 -35 93q-35 32 -94 32q-45 0 -73 -17.5q-28 -17.5 -44 -45.5q-16 -28 -21.5 -63.5q-5.5 -35.5 -5.5 -70.5v-489h-94v474q0 138 58 213q58 75 183 75q45 0 86 -12q41 -12 72 -36.5q31 -24.5 49.5 -61.5q18.5 -37 18.5 -86q0 -62 -30 -103.5q-30 -41.5 -87 -59.5l0 -2q36 -4 63.5 -20.5q27.5 -16.5 46.5 -41.5q19 -25 29 -57q10 -32 10 -68q0 -43 -13.5 -83q-13.5 -40 -42 -71q-28.5 -31 -72 -49.5t-103.5 -18.5z" />
<glyph unicode="&#116;" horiz-adv-x="380" d="M339 434h-126v-275q0 -46 23.5 -63.5q23.5 -17.5 55.5 -17.5q24 0 51 8l0 -85q-19 -5 -36 -7q-17 -2 -31 -2q-76 0 -116 41.5q-40 41.5 -40 116.5v284h-93v76h93v127l93 34v-161l126 0z" />
<glyph unicode="&#357;" horiz-adv-x="380" d="M339 434h-126v-275q0 -46 23.5 -63.5q23.5 -17.5 55.5 -17.5q24 0 51 8l0 -85q-19 -5 -36 -7q-17 -2 -31 -2q-76 0 -116 41.5q-40 41.5 -40 116.5v284h-93v76h93v127l93 34v-161h126zM329 762h100l-70 -168l-70 0z" />
<glyph unicode="&#117;" horiz-adv-x="610" d="M527 0h-94v73h-2q-29 -41 -72.5 -61q-43.5 -20 -97.5 -20q-90 0 -142 53.5q-52 53.5 -52 164.5v300h94v-270q0 -50 8.5 -83q8.5 -33 24 -52.5q15.5 -19.5 38 -28q22.5 -8.5 49.5 -8.5q69 0 110.5 49.5q41.5 49.5 41.5 152.5v240l94 0z" />
<glyph unicode="&#250;" horiz-adv-x="610" d="M527 0h-94v73h-2q-29 -41 -72.5 -61q-43.5 -20 -97.5 -20q-90 0 -142 53.5q-52 53.5 -52 164.5v300h94v-270q0 -50 8.5 -83q8.5 -33 24 -52.5q15.5 -19.5 38 -28q22.5 -8.5 49.5 -8.5q69 0 110.5 49.5q41.5 49.5 41.5 152.5v240h94zM336 740h120l-118 -130l-80 0z" />
<glyph unicode="&#365;" horiz-adv-x="610" d="M527 0h-94v73h-2q-29 -41 -72.5 -61q-43.5 -20 -97.5 -20q-90 0 -142 53.5q-52 53.5 -52 164.5v300h94v-270q0 -50 8.5 -83q8.5 -33 24 -52.5q15.5 -19.5 38 -28q22.5 -8.5 49.5 -8.5q69 0 110.5 49.5q41.5 49.5 41.5 152.5v240h94zM300 598q-64 0 -106.5 38q-42.5 38 -47.5 104l60 0q3 -12 9 -25q6 -13 17 -23.5q11 -10.5 27.5 -17q16.5 -6.5 40.5 -6.5q24 0 40.5 6.5q16.5 6.5 27.5 17q11 10.5 17 23.5q6 13 9 25l60 0q-5 -66 -47.5 -104t-106.5 -38z" />
<glyph unicode="&#251;" horiz-adv-x="610" d="M527 0h-94v73h-2q-29 -41 -72.5 -61q-43.5 -20 -97.5 -20q-90 0 -142 53.5q-52 53.5 -52 164.5v300h94v-270q0 -50 8.5 -83q8.5 -33 24 -52.5q15.5 -19.5 38 -28q22.5 -8.5 49.5 -8.5q69 0 110.5 49.5q41.5 49.5 41.5 152.5v240h94zM255 740h90l100 -130h-76l-69 84l-69 -84l-76 0z" />
<glyph unicode="&#252;" horiz-adv-x="610" d="M527 0h-94v73h-2q-29 -41 -72.5 -61q-43.5 -20 -97.5 -20q-90 0 -142 53.5q-52 53.5 -52 164.5v300h94v-270q0 -50 8.5 -83q8.5 -33 24 -52.5q15.5 -19.5 38 -28q22.5 -8.5 49.5 -8.5q69 0 110.5 49.5q41.5 49.5 41.5 152.5v240h94zM346 720h94v-100h-94zM160 720h94v-100l-94 0z" />
<glyph unicode="&#249;" horiz-adv-x="610" d="M527 0h-94v73h-2q-29 -41 -72.5 -61q-43.5 -20 -97.5 -20q-90 0 -142 53.5q-52 53.5 -52 164.5v300h94v-270q0 -50 8.5 -83q8.5 -33 24 -52.5q15.5 -19.5 38 -28q22.5 -8.5 49.5 -8.5q69 0 110.5 49.5q41.5 49.5 41.5 152.5v240h94zM143 740h120l78 -130l-80 0z" />
<glyph unicode="&#369;" horiz-adv-x="610" d="M527 0h-94v73h-2q-29 -41 -72.5 -61q-43.5 -20 -97.5 -20q-90 0 -142 53.5q-52 53.5 -52 164.5v300h94v-270q0 -50 8.5 -83q8.5 -33 24 -52.5q15.5 -19.5 38 -28q22.5 -8.5 49.5 -8.5q69 0 110.5 49.5q41.5 49.5 41.5 152.5v240h94zM432 740h110l-128 -130h-70zM251 740h110l-128 -130l-70 0z" />
<glyph unicode="&#363;" horiz-adv-x="610" d="M527 0h-94v73h-2q-29 -41 -72.5 -61q-43.5 -20 -97.5 -20q-90 0 -142 53.5q-52 53.5 -52 164.5v300h94v-270q0 -50 8.5 -83q8.5 -33 24 -52.5q15.5 -19.5 38 -28q22.5 -8.5 49.5 -8.5q69 0 110.5 49.5q41.5 49.5 41.5 152.5v240h94zM150 725h300v-70l-300 0z" />
<glyph unicode="&#291;" horiz-adv-x="630" d="M276 -228q-40 0 -74 5q-34 5 -60 12q-30 7 -55 17l0 90q25 -13 55 -24q26 -9 60 -16.5q34 -7.5 74 -7.5q177 0 177 178v53h-3q-25 -37 -69.5 -58q-44.5 -21 -97.5 -21q-50 0 -92.5 18q-42.5 18 -74 51.5q-31.5 33.5 -49.5 81q-18 47.5 -18 107.5q0 62 19 110.5q19 48.5 51.5 81.5q32.5 33 76.5 50.5q44 17.5 94 17.5q58 0 98 -24q40 -24 68 -57l3 0v73h88v-484q0 -128 -65.5 -191q-65.5 -63 -205.5 -63zt0 0zM303 76q31 0 58.5 12q27.5 12 47.5 35.5q20 23.5 31.5 57q11.5 33.5 11.5 77.5q0 45 -12 79.5q-12 34.5 -33 58q-21 23.5 -49 35q-28 11.5 -61 11.5q-31 0 -58 -11q-27 -11 -47 -33.5q-20 -22.5 -31.5 -56q-11.5 -33.5 -11.5 -77.5q0 -44 12.5 -78.5q12.5 -34.5 33.5 -59q21 -24.5 49 -37.5q28 -13 59 -13zt0 0zM320 780h70l-40 -186l-100 0z" />
<glyph unicode="&#311;" horiz-adv-x="555" d="M83 760h94v-488l247 238h117l-227 -212l230 -298h-115l-181 240l-71 -67v-173h-94zM246 -50h100l-70 -170l-70 0z" />
<glyph unicode="&#316;" horiz-adv-x="290" d="M98 762h94v-762h-94zM103 -50h100l-70 -170l-70 0z" />
<glyph unicode="&#326;" horiz-adv-x="610" d="M83 510h94v-73h2q29 41 72.5 61q43.5 20 97.5 20q90 0 142 -53.5q52 -53.5 52 -164.5v-300h-94v270q0 49 -8.5 82.5q-8.5 33.5 -24 53q-15.5 19.5 -38 28q-22.5 8.5 -49.5 8.5q-69 0 -110.5 -49.5q-41.5 -49.5 -41.5 -152.5v-240h-94zM263 -50h100l-70 -170l-70 0z" />
<glyph unicode="&#343;" horiz-adv-x="405" d="M83 510h88v-83h2q25 49 60.5 70q35.5 21 85.5 21q14 0 28.5 -1.5q14.5 -1.5 30.5 -3.5l0 -82q-15 2 -29 3.5q-14 1.5 -27 1.5q-77 0 -111 -53q-34 -53 -34 -155v-228h-94zM81 -50h100l-70 -170l-70 0z" />
<glyph unicode="&#355;" horiz-adv-x="380" d="M219 -194q-18 0 -34 5.5q-16 5.5 -35 19.5l21 40q21 -13 42 -13q17 0 30 8q13 8 13 28q0 19 -13 27.5q-13 8.5 -33 8.5q-14 0 -26 -3l11 82q-75 37 -75 141v284h-93v76h93v127l93 34v-161h126v-76h-126v-275q0 -46 23.5 -63.5q23.5 -17.5 55.5 -17.5q24 0 51 8l0 -85q-19 -5 -36 -7q-17 -2 -31 -2q-8 0 -15.5 0.5q-7.5 0.5 -14.5 1.5l-3 -22q42 -2 59.5 -21q17.5 -19 17.5 -53q0 -41 -28.5 -66.5t-72.5 -25.5z" />
<glyph unicode="&#464;" horiz-adv-x="290" d="M98 510h94v-510h-94zM20 740h76l49 -84l49 84h76l-84 -130l-83 0z" />
<glyph unicode="&#477;" horiz-adv-x="575" d="M52 276h377q-8 79 -53 121.5q-45 42.5 -122 42.5q-46 0 -92 -11.5q-46 -11.5 -75 -28.5l0 92q24 8 67.5 17q43.5 9 105.5 9q130 0 198 -72q68 -72 68 -200q0 -59 -18.5 -106q-18.5 -47 -51 -80q-32.5 -33 -76.5 -50.5q-44 -17.5 -95 -17.5q-109 0 -171 64q-62 64 -62 194zM286 68q58 0 96 37.5q38 37.5 46 100.5l-276 0q0 -66 38 -102t96 -36z" />
<glyph unicode="&#537;" horiz-adv-x="470" d="M212 -8q-51 0 -87.5 8.5q-36.5 8.5 -64.5 19.5l0 83q51 -23 88.5 -28.5q37.5 -5.5 54.5 -5.5q58 0 84 20.5q26 20.5 26 46.5q0 16 -8.5 27.5q-8.5 11.5 -22.5 21.5q-14 10 -33 18.5q-19 8.5 -40 17.5q-29 13 -56.5 26.5q-27.5 13.5 -48.5 31q-21 17.5 -34 41.5q-13 24 -13 58q0 63 50.5 101.5q50.5 38.5 147.5 38.5q50 0 88 -8q38 -8 49 -12l0 -80q-29 12 -61.5 17q-32.5 5 -64.5 5q-57 0 -82 -15.5q-25 -15.5 -25 -41.5q0 -15 8 -26.5q8 -11.5 21.5 -21q13.5 -9.5 31.5 -18q18 -8.5 38 -17.5q27 -12 55.5 -24.5q28.5 -12.5 52 -30.5q23.5 -18 38 -43q14.5 -25 14.5 -62q0 -66 -53.5 -107q-53.5 -41 -152.5 -41zt0 0zM187 -50h100l-70 -170l-70 0z" />
<glyph unicode="&#539;" horiz-adv-x="380" d="M339 434h-126v-275q0 -46 23.5 -63.5q23.5 -17.5 55.5 -17.5q24 0 51 8l0 -85q-19 -5 -36 -7q-17 -2 -31 -2q-76 0 -116 41.5q-40 41.5 -40 116.5v284h-93v76h93v127l93 34v-161h126zM175 -50h100l-70 -170l-70 0z" />
<glyph unicode="&#371;" horiz-adv-x="610" d="M442 -222q-57 0 -81 24q-24 24 -24 64q0 38 28.5 71.5q28.5 33.5 79.5 62.5l-12 0v73h-2q-29 -41 -72.5 -61q-43.5 -20 -97.5 -20q-90 0 -142 53.5q-52 53.5 -52 164.5v300h94v-270q0 -50 8.5 -83q8.5 -33 24 -52.5q15.5 -19.5 38 -28q22.5 -8.5 49.5 -8.5q69 0 110.5 49.5q41.5 49.5 41.5 152.5v240h94v-510q-32 -23 -52.5 -40.5q-20.5 -17.5 -32.5 -32q-12 -14.5 -16.5 -26q-4.5 -11.5 -4.5 -23.5q0 -20 10.5 -32.5q10.5 -12.5 30.5 -12.5q10 0 18.5 1q8.5 1 14.5 3q7 2 13 5l14 -49q-14 -6 -35.5 -10.5t-44.5 -4.5z" />
<glyph unicode="&#367;" horiz-adv-x="610" d="M527 0h-94v73h-2q-29 -41 -72.5 -61q-43.5 -20 -97.5 -20q-90 0 -142 53.5q-52 53.5 -52 164.5v300h94v-270q0 -50 8.5 -83q8.5 -33 24 -52.5q15.5 -19.5 38 -28q22.5 -8.5 49.5 -8.5q69 0 110.5 49.5q41.5 49.5 41.5 152.5v240h94zM300 576q-21 0 -39.5 8q-18.5 8 -32.5 22q-14 14 -22 32.5q-8 18.5 -8 39.5q0 21 8 39.5q8 18.5 22 32.5q14 14 32.5 22q18.5 8 39.5 8q21 0 39.5 -8q18.5 -8 32.5 -22q14 -14 22 -32.5q8 -18.5 8 -39.5q0 -21 -8 -39.5q-8 -18.5 -22 -32.5q-14 -14 -32.5 -22q-18.5 -8 -39.5 -8zt0 0zM300 616q26 0 44 18q18 18 18 44q0 26 -18 44q-18 18 -44 18q-26 0 -44 -18q-18 -18 -18 -44q0 -26 18 -44t44 -18z" />
<glyph unicode="&#118;" horiz-adv-x="540" d="M11 510h103l156 -416h6l159 416h94l-203 -510l-112 0z" />
<glyph unicode="&#119;" horiz-adv-x="805" d="M16 510h103l114 -406l131 406h80l130 -408l123 408h92l-165 -510h-99l-126 386l-120 -386l-99 0z" />
<glyph unicode="&#120;" horiz-adv-x="540" d="M213 267l-180 243h117l126 -189l128 189h105l-178 -243l189 -267h-116l-136 204l-136 -204l-112 0z" />
<glyph unicode="&#121;" horiz-adv-x="550" d="M121 -224q-10 0 -18 0.5q-8 0.5 -13 1.5q-7 1 -12 3l0 77q5 -1 11 -2q5 -1 11.5 -1q6.5 0 14.5 0q43 0 63.5 24q20.5 24 37.5 71l9 25l-209 535h103l155 -418h7l158 418h95l-212 -530q-23 -56 -41.5 -95q-18.5 -39 -40.5 -63q-22 -24 -50 -35t-69 -11z" />
<glyph unicode="&#253;" horiz-adv-x="550" d="M121 -224q-10 0 -18 0.5q-8 0.5 -13 1.5q-7 1 -12 3l0 77q5 -1 11 -2q5 -1 11.5 -1q6.5 0 14.5 0q43 0 63.5 24q20.5 24 37.5 71l9 25l-209 535h103l155 -418h7l158 418h95l-212 -530q-23 -56 -41.5 -95q-18.5 -39 -40.5 -63q-22 -24 -50 -35q-28 -11 -69 -11zt0 0zM306 740h120l-118 -130l-80 0z" />
<glyph unicode="&#255;" horiz-adv-x="550" d="M121 -224q-10 0 -18 0.5q-8 0.5 -13 1.5q-7 1 -12 3l0 77q5 -1 11 -2q5 -1 11.5 -1q6.5 0 14.5 0q43 0 63.5 24q20.5 24 37.5 71l9 25l-209 535h103l155 -418h7l158 418h95l-212 -530q-23 -56 -41.5 -95q-18.5 -39 -40.5 -63q-22 -24 -50 -35q-28 -11 -69 -11zt0 0zM316 720h94v-100h-94zM130 720h94v-100l-94 0z" />
<glyph unicode="&#122;" horiz-adv-x="500" d="M48 82l284 352h-270v76h379v-82l-285 -352h296v-76l-404 0z" />
<glyph unicode="&#378;" horiz-adv-x="500" d="M48 82l284 352h-270v76h379v-82l-285 -352h296v-76h-404zM286 740h120l-118 -130l-80 0z" />
<glyph unicode="&#382;" horiz-adv-x="500" d="M48 82l284 352h-270v76h379v-82l-285 -352h296v-76h-404zM105 740h76l69 -84l69 84h76l-100 -130l-90 0z" />
<glyph unicode="&#380;" horiz-adv-x="500" d="M48 82l284 352h-270v76h379v-82l-285 -352h296v-76h-404zM197 720h106v-106l-106 0z" />
<glyph unicode="&#64257;" horiz-adv-x="645" d="M25 510h98v61q0 107 40.5 152q40.5 45 124.5 45q25 0 47 -3q22 -3 32 -5l0 -76q-16 2 -29 3q-13 1 -25 1q-28 0 -46.5 -6.5q-18.5 -6.5 -29.5 -20.5q-11 -14 -15.5 -36.5q-4.5 -22.5 -4.5 -53.5v-61h143v-76h-143v-434h-94v434h-98zM453 510h94v-510h-94zM447 720h106v-106l-106 0z" />
<glyph unicode="&#64258;" horiz-adv-x="645" d="M25 510h98v61q0 107 40.5 152q40.5 45 124.5 45q25 0 47 -3q22 -3 32 -5l0 -76q-16 2 -29 3q-13 1 -25 1q-28 0 -46.5 -6.5q-18.5 -6.5 -29.5 -20.5q-11 -14 -15.5 -36.5q-4.5 -22.5 -4.5 -53.5v-61h143v-76h-143v-434h-94v434h-98zM453 762h94v-762l-94 0z" />
<glyph unicode="&#170;" horiz-adv-x="400" d="M156 268q-26 0 -49 8q-23 8 -41 24.5q-18 16.5 -29 41q-11 24.5 -11 57.5q0 42 14.5 69.5q14.5 27.5 41.5 43.5q27 16 66 22.5q39 6.5 87 6.5h26v27q0 35 -22 48.5q-22 13.5 -56 13.5q-28 0 -61 -7q-33 -7 -66 -15l0 80q15 5 33.5 9q18.5 4 37.5 7q19 3 38 4.5q19 1.5 34 1.5q69 0 109.5 -38q40.5 -38 40.5 -131v-263h-88v40h-2q-28 -32 -54.5 -41q-26.5 -9 -48.5 -9zt0 0zM183 346q40 0 59 26.5q19 26.5 19 64.5v44h-30q-59 0 -84.5 -19q-25.5 -19 -25.5 -54q0 -34 18 -48t44 -14z" />
<glyph unicode="&#186;" horiz-adv-x="400" d="M190 276q-82 0 -127 56.5q-45 56.5 -45 160.5q0 104 45 160.5q45 56.5 127 56.5q82 0 127 -56.5q45 -56.5 45 -160.5q0 -104 -45 -160.5q-45 -56.5 -127 -56.5zt0 0zM190 347q38 0 59.5 38q21.5 38 21.5 108q0 70 -21.5 108q-21.5 38 -59.5 38q-38 0 -59.5 -38q-21.5 -38 -21.5 -108q0 -70 21.5 -108t59.5 -38z" />
<glyph unicode="&#1040;" horiz-adv-x="690" d="M292 700h106l277 -700h-110l-67 180h-310l-67 -180h-106zM218 260h251l-124 335l-2 0z" />
<glyph unicode="&#1041;" horiz-adv-x="610" d="M93 700h422v-88h-324v-178h130q127 0 188 -58.5q61 -58.5 61 -159.5q0 -100 -62.5 -158q-62.5 -58 -196.5 -58h-218zM311 88q82 0 118.5 33.5q36.5 33.5 36.5 94.5q0 62 -35 96q-35 34 -110 34h-130l0 -258z" />
<glyph unicode="&#1042;" horiz-adv-x="610" d="M93 700h207q67 0 114.5 -12.5q47.5 -12.5 77.5 -36q30 -23.5 44 -57q14 -33.5 14 -74.5q0 -57 -30.5 -98q-30.5 -41 -98.5 -59l0 -2q80 -17 114.5 -61.5q34.5 -44.5 34.5 -108.5q0 -91 -57.5 -141q-57.5 -50 -192.5 -50h-227zM320 82q75 0 109.5 31q34.5 31 34.5 88q0 56 -34.5 87q-34.5 31 -109.5 31h-129v-237zM300 401q80 0 114.5 29.5q34.5 29.5 34.5 79.5q0 49 -34.5 78.5q-34.5 29.5 -114.5 29.5h-109l0 -217z" />
<glyph unicode="&#1043;" horiz-adv-x="520" d="M93 700h392v-88h-294v-612l-98 0z" />
<glyph unicode="&#1027;" horiz-adv-x="520" d="M93 700h392v-88h-294v-612h-98zM287 875h120l-111 -125l-80 0z" />
<glyph unicode="&#1168;" horiz-adv-x="520" d="M93 700h294v156h98v-244h-294v-612l-98 0z" />
<glyph unicode="&#1044;" horiz-adv-x="745" d="M11 88h67q28 43 44.5 89q16.5 46 25.5 98.5q9 52.5 11.5 113q2.5 60.5 2.5 132.5v179h469v-612h79v-244h-98v156h-503v-156h-98zM255 574q0 -56 -1.5 -124q-1.5 -68 -9 -134.5q-7.5 -66.5 -23.5 -126.5q-16 -60 -44 -101l356 0v524l-278 0z" />
<glyph unicode="&#1045;" horiz-adv-x="540" d="M93 700h393v-88h-295v-205h275v-88h-275v-231h295v-88l-393 0z" />
<glyph unicode="&#1025;" horiz-adv-x="540" d="M93 700h393v-88h-295v-205h275v-88h-275v-231h295v-88h-393zM130 850h106v-100h-106zM344 850h106v-100l-106 0z" />
<glyph unicode="&#1046;" horiz-adv-x="940" d="M597 324h-78v-324h-98v324h-79l-215 -324h-122l253 369l-230 331h121l193 -288h79v288h98v-288h78l194 288h121l-231 -331l254 -369l-122 0z" />
<glyph unicode="&#1047;" horiz-adv-x="540" d="M249 -10q-48 0 -86.5 6q-38.5 6 -66.5 14q-33 9 -59 20l0 94q27 -13 60 -23q29 -9 67.5 -16q38.5 -7 85.5 -7q75 0 110.5 30q35.5 30 35.5 90q0 56 -35 88.5q-35 32.5 -111 32.5h-83v82h63q78 0 112 30q34 30 34 81q0 53 -34 81.5q-34 28.5 -112 28.5q-35 0 -66 -6.5q-31 -6.5 -55 -14.5q-28 -9 -52 -20l0 94q24 9 51 17q23 7 54.5 12.5q31.5 5.5 67.5 5.5q63 0 110 -13.5q47 -13.5 78 -37.5q31 -24 46.5 -58q15.5 -34 15.5 -75q0 -56 -30.5 -97q-30.5 -41 -93.5 -66l0 -1q77 -20 110.5 -62.5q33.5 -42.5 33.5 -103.5q0 -44 -17 -81.5q-17 -37.5 -49.5 -65q-32.5 -27.5 -79 -43.5t-105.5 -16z" />
<glyph unicode="&#1048;" horiz-adv-x="740" d="M93 700h98v-511l-2 -60h2l38 65l294 506h124v-700h-98v503l2 70h-2l-34 -59l-298 -514l-124 0z" />
<glyph unicode="&#1049;" horiz-adv-x="740" d="M93 700h98v-511l-2 -60h2l38 65l294 506h124v-700h-98v503l2 70h-2l-34 -59l-298 -514h-124zM370 740q-69 0 -115 33q-46 33 -50 103l75 0q4 -33 27 -49.5q23 -16.5 63 -16.5q82 0 90 66l75 0q-4 -70 -50 -103t-115 -33z" />
<glyph unicode="&#1050;" horiz-adv-x="645" d="M93 700h98v-288h103l202 288h121l-240 -331l263 -369h-122l-225 324h-102v-324l-98 0z" />
<glyph unicode="&#1036;" horiz-adv-x="645" d="M93 700h98v-288h103l202 288h121l-240 -331l263 -369h-122l-225 324h-102v-324h-98zM347 875h120l-111 -125l-80 0z" />
<glyph unicode="&#1051;" horiz-adv-x="720" d="M77 -10q-12 0 -21 1q-9 1 -16 3q-8 2 -13 4l0 87q5 -2 10 -3q5 -1 10 -1.5q5 -0.5 12 -0.5q25 0 42.5 19q17.5 19 29 73.5q11.5 54.5 17 152q5.5 97.5 5.5 255.5v120h474v-700h-98v612h-280v-32q0 -180 -8.5 -294.5q-8.5 -114.5 -28.5 -180.5q-20 -66 -53 -90.5t-82 -24.5z" />
<glyph unicode="&#1052;" horiz-adv-x="860" d="M93 700h159l180 -385l181 385h154v-700h-98v604h-3l-196 -404h-80l-196 404h-3v-604l-98 0z" />
<glyph unicode="&#1053;" horiz-adv-x="720" d="M93 700h98v-293h338v293h98v-700h-98v319h-338v-319l-98 0z" />
<glyph unicode="&#1054;" horiz-adv-x="750" d="M375 -10q-77 0 -137.5 27q-60.5 27 -102.5 75q-42 48 -64 114q-22 66 -22 144q0 79 22.5 145q22.5 66 64.5 114q42 48 102.5 74.5q60.5 26.5 136.5 26.5q77 0 137.5 -27q60.5 -27 102.5 -75q42 -48 64 -114q22 -66 22 -144q0 -79 -22.5 -145q-22.5 -66 -64.5 -114q-42 -48 -102.5 -74.5q-60.5 -26.5 -136.5 -26.5zt0 0zM375 78q54 0 95.5 21.5q41.5 21.5 69.5 59q28 37.5 42.5 86.5q14.5 49 14.5 105q0 57 -15 106.5q-15 49.5 -43.5 86.5q-28.5 37 -69.5 58q-41 21 -94 21q-54 0 -95 -21.5q-41 -21.5 -69.5 -58.5q-28.5 -37 -43 -86.5q-14.5 -49.5 -14.5 -105.5q0 -57 14.5 -106.5q14.5 -49.5 43 -86q28.5 -36.5 69.5 -58t95 -21.5z" />
<glyph unicode="&#1055;" horiz-adv-x="710" d="M93 700h524v-700h-98v612h-328v-612l-98 0z" />
<glyph unicode="&#1056;" horiz-adv-x="600" d="M93 700h224q130 0 192 -57.5q62 -57.5 62 -163.5q0 -106 -62 -163.5q-62 -57.5 -192 -57.5h-126v-258h-98zM317 346q77 0 113.5 33.5q36.5 33.5 36.5 99.5q0 66 -36.5 99.5q-36.5 33.5 -113.5 33.5h-126l0 -266z" />
<glyph unicode="&#1057;" horiz-adv-x="630" d="M415 -10q-86 0 -153.5 25.5q-67.5 25.5 -115 72.5q-47.5 47 -72.5 113.5q-25 66.5 -25 148.5q0 80 26 146.5q26 66.5 73.5 114q47.5 47.5 115 73.5q67.5 26 151.5 26q35 0 65 -4.5q30 -4.5 53 -9.5q26 -6 48 -14l0 -96q-22 10 -48 18q-23 7 -53 12.5q-30 5.5 -65 5.5q-60 0 -108.5 -19q-48.5 -19 -82.5 -54q-34 -35 -52.5 -85.5q-18.5 -50.5 -18.5 -113.5q0 -63 18.5 -113.5q18.5 -50.5 52.5 -85.5q34 -35 82.5 -54q48.5 -19 108.5 -19q35 0 65 4.5q30 4.5 53 10.5q26 7 48 16l0 -96q-22 -7 -48 -12q-23 -5 -53 -8t-65 -3z" />
<glyph unicode="&#1058;" horiz-adv-x="560" d="M231 612h-214v88h526v-88h-214v-612l-98 0z" />
<glyph unicode="&#1059;" horiz-adv-x="620" d="M117 86q16 -6 30 -9.5q14 -3.5 28 -3.5q30 0 53 19q23 19 39 64l-255 544h105l193 -432h5l191 432h102l-253 -559q-18 -40 -35.5 -68.5q-17.5 -28.5 -37 -47q-19.5 -18.5 -43 -27q-23.5 -8.5 -53.5 -8.5q-23 0 -39.5 3.5q-16.5 3.5 -29.5 8.5l0 84z" />
<glyph unicode="&#1038;" horiz-adv-x="620" d="M117 86q16 -6 30 -9.5q14 -3.5 28 -3.5q30 0 53 19q23 19 39 64l-255 544h105l193 -432h5l191 432h102l-253 -559q-18 -40 -35.5 -68.5q-17.5 -28.5 -37 -47q-19.5 -18.5 -43 -27q-23.5 -8.5 -53.5 -8.5q-23 0 -39.5 3.5q-16.5 3.5 -29.5 8.5l0 84zM310 740q-69 0 -115 33q-46 33 -50 103l75 0q4 -33 27 -49.5q23 -16.5 63 -16.5q82 0 90 66l75 0q-4 -70 -50 -103t-115 -33z" />
<glyph unicode="&#1060;" horiz-adv-x="870" d="M386 77h-26q-74 0 -133.5 21q-59.5 21 -101 58.5q-41.5 37.5 -64 89.5q-22.5 52 -22.5 114q0 62 22.5 114q22.5 52 64 89.5q41.5 37.5 101 58.5q59.5 21 133.5 21h26v85h98v-85h26q74 0 133.5 -21q59.5 -21 101 -58.5q41.5 -37.5 64 -89.5q22.5 -52 22.5 -114q0 -62 -22.5 -114q-22.5 -52 -64 -89.5q-41.5 -37.5 -101 -58.5q-59.5 -21 -133.5 -21h-26v-87h-98zM386 159v402h-18q-110 0 -167.5 -52q-57.5 -52 -57.5 -149q0 -97 57.5 -149q57.5 -52 167.5 -52zM502 159q110 0 167.5 52q57.5 52 57.5 149q0 97 -57.5 149q-57.5 52 -167.5 52h-18l0 -402z" />
<glyph unicode="&#1061;" horiz-adv-x="690" d="M339 296l-199 -296h-120l257 364l-234 336h120l186 -269l184 269h114l-235 -334l258 -366l-126 0z" />
<glyph unicode="&#1063;" horiz-adv-x="650" d="M459 293q-59 -15 -105 -19.5q-46 -4.5 -75 -4.5q-112 0 -169 52q-57 52 -57 153v226h98v-210q0 -76 35.5 -104.5q35.5 -28.5 113.5 -28.5q36 0 76 5q40 5 83 18l0 320h98v-700l-98 0z" />
<glyph unicode="&#1062;" horiz-adv-x="735" d="M602 0h-509v700h98v-612h332v612h98v-612h79v-244l-98 0z" />
<glyph unicode="&#1064;" horiz-adv-x="964" d="M93 700h98v-612h242v612h98v-612h242v612h98v-700l-778 0z" />
<glyph unicode="&#1065;" horiz-adv-x="990" d="M93 700h98v-612h242v612h98v-612h242v612h98v-612h84v-244h-98v156l-764 0z" />
<glyph unicode="&#1039;" horiz-adv-x="705" d="M304 0h-211v700h98v-612h323v612h98v-700h-210v-156l-98 0z" />
<glyph unicode="&#1068;" horiz-adv-x="590" d="M93 700h98v-256h114q128 0 189 -58q61 -58 61 -164q0 -106 -61 -164q-61 -58 -189 -58h-212zM305 88q75 0 109.5 34q34.5 34 34.5 100q0 66 -34.5 100q-34.5 34 -109.5 34h-114l0 -268z" />
<glyph unicode="&#1066;" horiz-adv-x="660" d="M163 612h-143v88h243l-2 -2v-254h114q128 0 189 -58q61 -58 61 -164q0 -106 -61 -164q-61 -58 -189 -58h-212zM375 88q75 0 109.5 34q34.5 34 34.5 100q0 66 -34.5 100q-34.5 34 -109.5 34h-114l0 -268z" />
<glyph unicode="&#1067;" horiz-adv-x="875" d="M93 700h98v-260h107q128 0 189 -57q61 -57 61 -163q0 -106 -61 -163q-61 -57 -189 -57h-205zM298 88q75 0 109.5 33q34.5 33 34.5 99q0 66 -34.5 99q-34.5 33 -109.5 33h-107v-264zM684 700h98v-700l-98 0z" />
</font>
</defs>
</svg>
